<svg width="1206" height="827" viewBox="0 0 1206 827" fill="none" xmlns="http://www.w3.org/2000/svg">
<path d="M602.609 802.452C935.421 802.452 1205.22 635.674 1205.22 429.943C1205.22 224.211 935.421 57.4333 602.609 57.4333C269.797 57.4333 0 224.211 0 429.943C0 635.674 269.797 802.452 602.609 802.452Z" fill="#BFE0E2"/>
<path d="M118.762 453.066C125.427 460.286 135.941 464.174 145.463 461.746C154.985 459.319 162.652 450.003 162.018 440.198C161.383 430.392 151.481 421.843 141.833 423.704C143.265 414.837 137.96 405.329 129.663 401.891C121.366 398.453 110.89 401.424 105.632 408.705C104.179 401.282 97.3496 395.261 89.8021 394.751C82.2563 394.24 74.6755 399.287 72.2355 406.445C65.3793 401.222 57.7583 396.575 49.2533 395.184C40.7466 393.792 31.1931 396.241 25.9246 403.064C20.6577 409.887 21.4524 421.245 28.7251 425.869C19.611 428.966 11.8184 436.482 9.58499 445.843C7.35153 455.205 11.4421 466.054 19.9051 470.64C28.3681 475.226 40.4823 472.091 44.7549 463.467C49.7154 473.488 62.6925 478.69 73.2017 474.87C80.5637 472.194 87.4776 458.699 87.4776 458.699C87.4776 458.699 107.918 476.125 118.762 453.066Z" fill="#F7EFE7"/>
<path d="M919.956 756.389C926.621 763.609 937.136 767.497 946.658 765.069C956.179 762.641 963.846 753.326 963.212 743.52C962.577 733.715 952.675 725.166 943.027 727.027C944.459 718.161 939.154 708.652 930.857 705.214C922.56 701.776 912.084 704.746 906.826 712.028C905.374 704.605 898.542 698.584 890.996 698.072C883.45 697.561 875.87 702.608 873.43 709.767C866.574 704.543 858.952 699.896 850.447 698.505C841.942 697.113 832.387 699.562 827.119 706.385C821.852 713.208 822.647 724.566 829.919 729.19C820.805 732.287 813.013 739.803 810.779 749.164C808.547 758.526 812.636 769.373 821.099 773.961C829.562 778.547 841.676 775.412 845.949 766.788C850.911 776.809 863.885 782.011 874.396 778.191C881.758 775.515 888.672 762.02 888.672 762.02C888.672 762.02 909.111 779.45 919.956 756.389Z" fill="#F7EFE7"/>
<path d="M895.132 143.321C901.798 150.542 912.314 154.429 921.834 152.002C931.356 149.574 939.022 140.258 938.389 130.453C937.753 120.647 927.852 112.099 918.204 113.959C919.635 105.092 914.33 95.584 906.033 92.1463C897.737 88.7086 887.261 91.679 882.003 98.9605C880.55 91.5372 873.718 85.516 866.173 85.0066C858.627 84.4955 851.046 89.5418 848.606 96.7008C841.75 91.4777 834.129 86.8305 825.622 85.439C817.115 84.0474 807.562 86.4962 802.293 93.3191C797.027 100.142 797.821 111.5 805.094 116.124C795.98 119.221 788.187 126.737 785.954 136.1C783.72 145.462 787.811 156.311 796.274 160.897C804.737 165.483 816.851 162.348 821.124 153.724C826.086 163.745 839.06 168.947 849.57 165.127C856.932 162.453 863.846 148.956 863.846 148.956C863.846 148.956 884.289 166.381 895.132 143.321Z" fill="#F7EFE7"/>
<path d="M396.109 103.041L414.094 81.6758L408.255 109.983L429.025 115.521L407.324 122.228C407.324 122.228 406.331 142.221 405.563 142.48C404.794 142.739 393.841 120.763 393.841 120.763C393.841 120.763 376.248 128.318 375.677 128.163C375.107 128.008 386.006 112.006 386.006 112.006C386.006 112.006 375.21 92.3949 376.363 93.5729C377.519 94.7509 396.109 103.041 396.109 103.041Z" fill="#F7EFE7"/>
<path d="M935.638 469.51L966.582 455.332L945.406 483.483L965.411 500.402L938.004 496.492C938.004 496.492 926.499 518.007 925.517 517.892C924.535 517.776 923.91 487.855 923.91 487.855C923.91 487.855 901.845 491.554 900.041 486.55C899.796 485.872 919.837 474.124 919.837 474.124C919.837 474.124 918.153 446.89 918.811 448.789C919.47 450.69 935.638 469.51 935.638 469.51Z" fill="#F7EFE7"/>
<path d="M716.996 257.963L697.455 279.238L704.756 250.246L683.538 243.594L706.265 237.632C706.265 237.632 708.183 217.015 708.99 216.782C709.797 216.549 720.133 239.749 720.133 239.749C720.133 239.749 738.653 232.728 739.234 232.913C739.817 233.099 727.838 249.15 727.838 249.15C727.838 249.15 738.117 269.9 736.978 268.631C735.837 267.362 716.996 257.963 716.996 257.963Z" fill="#95C9D1"/>
<path d="M371.724 570.042L382.531 557.203L379.021 574.213L391.503 577.54L378.463 581.571C378.463 581.571 377.868 593.586 377.406 593.74C376.944 593.895 370.362 580.689 370.362 580.689C370.362 580.689 359.79 585.229 359.447 585.135C359.104 585.042 365.654 575.426 365.654 575.426C365.654 575.426 359.167 563.641 359.86 564.349C360.552 565.058 371.724 570.042 371.724 570.042Z" fill="#2682BF"/>
<path d="M476.288 703.684L464.636 678.306L487.748 695.661L501.616 679.237L498.427 701.726C498.427 701.726 516.086 711.151 515.992 711.957C515.897 712.762 491.35 713.296 491.35 713.296C491.35 713.296 490.678 732.43 490.295 732.88C489.911 733.33 480.086 716.646 480.086 716.646C480.086 716.646 457.743 718.044 459.301 717.503C460.859 716.962 476.288 703.684 476.288 703.684Z" fill="#F7EFE7"/>
<path d="M157.097 334.495L165.982 322.059L164.025 337.756L175.596 339.876L164.048 344.478C164.048 344.478 164.373 355.428 163.965 355.603C163.558 355.778 156.628 344.264 156.628 344.264C156.628 344.264 147.358 349.149 147.039 349.09C146.721 349.03 151.974 339.827 151.974 339.827C151.974 339.827 145.233 329.596 145.914 330.188C146.595 330.779 157.097 334.495 157.097 334.495Z" fill="#95C9D1"/>
<path d="M757.227 651.989L766.111 639.553L764.155 655.25L775.726 657.37L764.177 661.971C764.177 661.971 764.503 672.922 764.095 673.097C763.687 673.272 756.758 661.758 756.758 661.758C756.758 661.758 747.488 666.643 747.169 666.584C746.851 666.524 752.103 657.321 752.103 657.321C752.103 657.321 745.363 647.09 746.044 647.682C746.725 648.273 757.227 651.989 757.227 651.989Z" fill="#95C9D1"/>
<path d="M931.662 242.66L925.285 228.771L937.934 238.27L945.523 229.28L943.778 241.589C943.778 241.589 953.443 246.747 953.391 247.188C953.34 247.629 939.904 247.922 939.904 247.922C939.904 247.922 939.537 258.394 939.327 258.641C939.117 258.888 933.74 249.756 933.74 249.756C933.74 249.756 921.512 250.523 922.364 250.225C923.218 249.928 931.662 242.66 931.662 242.66Z" fill="#2682BF"/>
<path d="M312.583 299.821L306.206 285.932L318.854 295.431L326.444 286.443L324.699 298.751C324.699 298.751 334.364 303.91 334.312 304.351C334.261 304.792 320.825 305.084 320.825 305.084C320.825 305.084 320.458 315.557 320.248 315.803C320.038 316.05 314.66 306.919 314.66 306.919C314.66 306.919 302.432 307.685 303.285 307.388C304.139 307.087 312.583 299.821 312.583 299.821Z" fill="#F7EFE7"/>
<path d="M652.791 499.261C652.791 499.261 641.363 476.804 649.104 466.51C656.846 456.215 661.271 482.887 661.271 482.887C661.271 482.887 672.661 463.68 680.812 472.437C692.24 484.716 652.791 499.261 652.791 499.261Z" fill="#95C9D1"/>
<path d="M441.1 316.442C441.1 316.442 429.203 293.066 437.263 282.348C445.322 271.631 449.929 299.395 449.929 299.395C449.929 299.395 461.784 279.403 470.27 288.519C482.167 301.301 441.1 316.442 441.1 316.442Z" fill="#95C9D1"/>
<path d="M1142.4 396.344C1142.4 396.344 1115.45 380.082 1116.86 364.052C1118.27 348.022 1140.58 373.38 1140.58 373.38C1140.58 373.38 1139.97 345.493 1154.39 349.394C1174.62 354.866 1142.4 396.344 1142.4 396.344Z" fill="#F66B3E"/>
<path d="M257.893 494.585C257.893 494.585 232.71 495.455 226.651 484.088C220.591 472.722 246.633 479.98 246.633 479.98C246.633 479.98 234.037 461.542 245.42 457.856C261.378 452.685 257.893 494.585 257.893 494.585Z" fill="#F66B3E"/>
<path d="M82.2317 541.687C80.3378 541.41 78.2041 541.858 77.0034 543.35C75.5016 545.214 76.1335 548.331 78.1621 549.602C80.1908 550.873 83.1384 550.197 84.5527 548.265C85.967 546.332 85.7919 543.455 84.2919 541.589L82.2317 541.687Z" fill="#F66B3E"/>
<path d="M531.406 591.595C529.513 591.318 527.379 591.766 526.178 593.257C524.676 595.122 525.308 598.239 527.337 599.51C529.365 600.781 532.313 600.105 533.727 598.172C535.142 596.24 534.967 593.363 533.467 591.497L531.406 591.595Z" fill="#F7EFE7"/>
<path d="M304.702 390.484C302.808 390.207 300.674 390.656 299.474 392.147C297.972 394.011 298.604 397.128 300.632 398.399C302.661 399.67 305.609 398.994 307.023 397.062C308.437 395.129 308.262 392.252 306.762 390.386L304.702 390.484Z" fill="#F7EFE7"/>
<path opacity="0.5" d="M345.032 153.265C343.138 152.989 341.004 153.437 339.804 154.928C338.302 156.792 338.934 159.91 340.962 161.18C342.991 162.451 345.939 161.776 347.353 159.843C348.767 157.911 348.592 155.033 347.092 153.167L345.032 153.265Z" fill="#0087BC"/>
<path d="M1077.53 436.275C1074.14 435.779 1070.31 436.583 1068.16 439.254C1065.47 442.595 1066.6 448.179 1070.24 450.456C1073.87 452.733 1079.15 451.522 1081.69 448.06C1084.22 444.598 1083.9 439.443 1081.22 436.1L1077.53 436.275Z" fill="#95C9D1"/>
<path d="M742.965 121.444C741.071 121.167 738.937 121.615 737.735 123.107C736.233 124.971 736.865 128.088 738.893 129.359C740.922 130.63 743.87 129.954 745.284 128.022C746.698 126.089 746.523 123.212 745.023 121.346L742.965 121.444Z" fill="#F7EFE7"/>
<path d="M878.35 247.783C876.456 247.506 874.322 247.954 873.122 249.446C871.62 251.31 872.252 254.427 874.28 255.698C876.309 256.969 879.257 256.293 880.671 254.361C882.085 252.428 881.91 249.551 880.41 247.685L878.35 247.783Z" fill="#F7EFE7"/>
<path d="M1102.34 306.758C1100.45 306.481 1098.31 306.929 1097.11 308.42C1095.61 310.285 1096.24 313.402 1098.27 314.673C1100.3 315.943 1103.25 315.268 1104.66 313.335C1106.08 311.403 1105.9 308.525 1104.4 306.66L1102.34 306.758Z" fill="#F7EFE7"/>
<path d="M919.138 513.637C917.245 513.361 915.111 513.809 913.91 515.3C912.408 517.164 913.04 520.282 915.069 521.553C917.098 522.823 920.045 522.148 921.46 520.215C922.874 518.283 922.699 515.405 921.199 513.539L919.138 513.637Z" fill="#F7EFE7"/>
<path d="M184.02 621.471C188.453 619.894 193.602 620.851 197.435 623.58C201.267 626.31 203.804 630.662 204.731 635.275C205.977 641.473 204.343 648.189 200.391 653.124C196.439 658.057 190.24 661.116 183.92 661.253C182.682 661.28 181.279 661.265 180.429 662.165C179.554 663.092 179.685 664.571 180.053 665.792C181.66 671.116 186.64 674.972 192.034 676.315C197.431 677.66 203.165 676.802 208.451 675.08C213.422 673.461 218.341 670.92 221.347 666.642C225.007 661.435 225.227 654.637 225.314 648.272C225.423 640.325 225.469 632.071 222.145 624.852C218.114 616.097 209.033 609.893 199.412 609.32L184.02 621.471Z" fill="#447302"/>
<path d="M256.354 585.639C255.83 583.466 254.853 581.463 253.538 579.749C251.828 577.549 249.546 575.802 246.896 574.739C232.533 568.981 201.634 557.131 191.699 557.499C178.621 557.973 22.3306 704.065 66.7174 746.587C80.8647 760.14 96.3311 759.895 110.839 753.278C141.82 739.141 168.417 695.873 168.417 695.873L188.708 702.073C188.708 702.073 167.696 793.213 227.143 798.306C305.749 805.029 266.154 625.678 256.354 585.639ZM187.394 661.159C179.483 657.04 174.976 646.986 177.746 638.512C183.158 621.943 211.222 616.66 218.228 634.664C225.163 652.444 203.754 669.689 187.394 661.159Z" fill="#71BE03"/>
<path d="M219.811 723.437C216.077 728.07 214.091 733.898 213.067 739.759C211.765 747.206 211.986 755.191 215.454 761.907C218.922 768.624 226.15 773.722 233.682 773.085C245.885 772.052 251.319 759.021 251.935 748.36C252.477 738.979 252.542 721.223 241.93 716.951C234.327 713.89 224.817 717.223 219.811 723.437Z" fill="white"/>
<path d="M221.305 693.15C218.911 695.702 217.923 699.893 219.968 702.929C221.213 704.778 223.209 706.006 225.302 706.77C230.557 708.689 237.181 708.279 240.588 703.339C243.213 699.532 243.647 693.954 239.927 690.684C235.344 686.651 225.059 689.149 221.305 693.15Z" fill="white"/>
<path opacity="0.72" d="M253.53 579.753C253.53 579.753 195.171 560.428 184.109 568.701C173.046 576.975 70.314 685.526 70.3913 717.682C70.4578 743.916 90.6256 752.107 110.837 753.284C96.3326 759.903 80.8702 760.148 66.7188 746.589C22.3225 704.071 178.616 557.974 191.707 557.498C201.637 557.134 232.538 568.979 246.893 574.738C249.553 575.799 251.829 577.545 253.53 579.753Z" fill="black"/>
<path d="M1158.18 751.175C1145.36 762.027 1128.24 766.814 1111.46 767.435C1094.78 768.05 1077.99 764.74 1062.73 757.976C1056.45 755.2 1050.43 751.841 1044.79 747.929C1014.9 727.214 996.531 690.92 997.379 654.564C998.222 618.206 1018.2 582.865 1048.83 563.265C1072.35 548.211 1101.63 542.41 1129.11 547.358C1162.13 553.31 1209.97 581.885 1203.92 617.495C1203.93 617.505 1203.93 617.505 1203.93 617.505C1202.68 624.812 1199.19 632.404 1192.82 640.165C1182.4 652.889 1160.87 657.172 1149.46 645.317C1139.54 635.009 1139.81 616.443 1127.43 609.273C1117.78 603.687 1104.7 608.683 1098 617.604C1091.3 626.524 1089.59 638.166 1088.92 649.294C1088.09 663.314 1090.99 680.852 1104.37 685.091C1115.68 688.667 1127.04 680.148 1138.79 678.596C1155.45 676.397 1171.77 689.924 1175.28 706.35C1178.78 722.777 1171 740.331 1158.18 751.175Z" fill="#FFB93E"/>
<path d="M1077.02 702.308C1070.82 699.901 1065.71 694.45 1059.08 694.008C1052.45 693.564 1046.25 698.828 1044.48 705.234C1042.71 711.64 1044.82 718.689 1048.87 723.962C1052.91 729.235 1058.69 732.93 1064.72 735.738C1075.34 740.692 1087.74 743.15 1098.83 739.348C1108.58 736.006 1122.26 722.168 1116.34 710.759C1109.78 698.096 1087.85 706.52 1077.02 702.308Z" fill="white"/>
<path d="M1132.64 715.891C1128.81 719.082 1125.95 724.805 1127.09 729.403C1127.78 732.202 1129.6 734.254 1131.72 735.669C1137.04 739.224 1144.9 739.734 1150.87 733.355C1155.48 728.439 1158.26 720.68 1155.27 715.478C1151.59 709.067 1138.63 710.89 1132.64 715.891Z" fill="white"/>
<path opacity="0.72" d="M1203.92 617.497C1203.7 616.705 1191.48 574.712 1142.11 560.912C1092.27 546.97 1032.61 563.769 1011.29 630.992C993.758 686.267 1044.23 740.46 1062.73 757.977C1056.45 755.202 1050.43 751.843 1044.79 747.93C1014.9 727.215 996.531 690.921 997.379 654.565C998.222 618.207 1018.2 582.866 1048.83 563.266C1072.35 548.212 1101.63 542.411 1129.11 547.359C1162.13 553.312 1209.97 581.888 1203.92 617.497Z" fill="black"/>
<path d="M535.827 47.1219C543.536 49.8934 549.496 57.0415 550.835 65.1222C552.175 73.2026 548.84 81.8924 542.44 87.0032C551.991 87.3698 561.586 82.5536 566.999 74.675C572.412 66.7964 573.465 56.1123 569.694 47.3286C565.925 38.5447 557.455 31.9469 548.015 30.443L535.827 47.1219Z" fill="#022A49"/>
<path d="M573.739 127.09C581.447 129.861 587.408 137.01 588.747 145.09C590.087 153.171 586.753 161.86 580.351 166.97C589.903 167.337 599.497 162.521 604.909 154.642C610.321 146.764 611.375 136.079 607.605 127.296C603.835 118.512 595.365 111.914 585.925 110.41L573.739 127.09Z" fill="#022A49"/>
<path d="M636.643 110.117C630.198 98.2933 619.956 93.2486 609.353 91.6836C590.088 88.8353 569.642 97.4939 568.598 97.9431C568.623 97.9289 568.662 97.9033 568.713 97.8799C571.32 96.4292 605.88 76.3338 589.594 40.0347C585.061 29.9377 576.472 23.394 566.07 19.6861C537.642 9.55579 495.687 20.6512 486.151 38.4116C473.128 62.6774 532.305 196.854 540.668 196.94C560.725 197.132 579.952 194.639 596.329 189.573C635.72 177.404 658.592 150.365 636.643 110.117ZM529.945 70.0579C525.952 57.1821 541.294 41.3057 553.768 49.5301C566.095 57.6555 560.3 78.112 546.161 80.0422C539.321 80.9754 531.984 76.648 529.945 70.0579ZM586.116 161.19C579.276 162.123 571.94 157.796 569.9 151.206C565.907 138.33 581.254 122.452 593.723 130.678C606.05 138.804 600.256 159.261 586.116 161.19Z" fill="#0087BC"/>
<path d="M518.524 116.855C518.007 121.287 518.761 125.985 520.024 130.399C521.628 136.006 524.185 141.496 528.037 145.056C531.889 148.616 537.195 149.835 540.904 146.961C546.911 142.306 545.74 131.476 542.798 123.852C540.21 117.143 534.81 104.754 528.004 105.202C523.127 105.523 519.219 110.912 518.524 116.855Z" fill="white"/>
<path d="M510.034 95.2776C509.573 97.8271 510.344 101.066 512.333 102.521C513.544 103.407 514.955 103.619 516.273 103.477C519.584 103.119 522.892 100.697 523.145 96.1569C523.34 92.6587 521.859 88.6331 518.931 87.5542C515.32 86.2237 510.755 91.2802 510.034 95.2776Z" fill="white"/>
<path opacity="0.72" d="M568.714 97.8797C568.663 97.9031 568.624 97.9287 568.599 97.9429C568.574 97.9572 568.558 97.9634 568.558 97.9634C607.816 63.7923 566.07 19.6872 566.07 19.6872C576.473 23.3948 585.061 29.9387 589.594 40.0357C605.881 76.3346 571.321 96.429 568.714 97.8797Z" fill="black"/>
<path opacity="0.72" d="M596.331 189.574C678.23 147.274 609.355 91.6845 609.355 91.6845C619.956 93.2497 630.2 98.2942 636.644 110.118C658.592 150.365 635.721 177.405 596.331 189.574Z" fill="black"/>
<path d="M196.877 128.648C220.88 165.737 203.245 202.317 203.245 202.317L211.791 214.53L186.515 232.219L177.969 220.006C177.969 220.006 163.969 221.41 147.023 215.363C135.182 211.145 121.89 203.294 110.937 188.791C100.954 175.573 100.142 161.812 103.021 149.769C109.533 122.57 135.141 104.648 162.926 107.847C164.189 107.994 165.461 108.184 166.725 108.419C177.788 110.476 188.797 116.169 196.877 128.648Z" fill="#FFC569"/>
<path d="M198.282 220.872L195.396 222.891C194.562 223.475 193.428 223.351 192.739 222.604C192.607 222.462 179.461 208.217 165.369 194.599C157.542 187.036 151.582 181.744 147.054 178.05C138.819 180.74 131.68 178.594 129.04 175.069C126.938 172.261 127.59 168.866 130.704 166.42C133.415 164.284 138.035 166.008 146.152 172.172C146.681 172.573 147.224 172.993 147.782 173.432C149.418 172.728 151.103 171.795 152.813 170.573L163.696 162.957C163.79 162.892 163.858 162.845 163.937 162.79C165.567 161.65 166.953 160.438 168.12 159.199C167.898 158.525 167.689 157.87 167.493 157.236C164.482 147.5 164.473 142.556 167.38 140.752C170.745 138.663 174.159 139.214 176.077 142.15C178.483 145.837 178.055 153.276 172.705 160.095C174.628 165.614 177.557 173.025 181.983 182.972C189.951 200.876 198.831 218.106 198.919 218.279C199.388 219.181 199.115 220.289 198.282 220.872ZM151.274 176.271C155.88 180.125 161.273 185.022 167.38 190.899C179.346 202.413 190.793 214.562 194.49 218.522C192.033 213.693 184.54 198.779 177.821 183.592C174.39 175.84 171.636 169.094 169.594 163.447C168.525 164.431 167.337 165.381 166.018 166.286L155.157 173.886C153.863 174.809 152.56 175.603 151.274 176.271ZM169.521 144.2C169.345 144.411 168.359 146.1 171.117 155.232C173.826 150.626 173.924 146.275 172.679 144.368C172.41 143.954 171.691 142.854 169.521 144.2ZM133.169 169.636C131.205 171.186 131.992 172.238 132.29 172.634C133.654 174.457 137.775 175.855 143.027 174.888C135.39 169.173 133.454 169.527 133.169 169.636Z" fill="#F7EFE7"/>
<path d="M128.292 166.183C127.767 156.449 130.402 146.569 135.706 138.39C137.674 135.355 140.068 131.525 138.148 128.459C136.505 125.836 132.724 125.719 129.708 126.41C122.061 128.162 115.25 133.283 111.443 140.141C107.635 147.001 106.891 155.489 109.448 162.906C110.564 166.141 112.423 169.317 115.418 170.97C118.414 172.625 122.705 172.228 124.651 169.414L128.292 166.183Z" fill="white"/>
<path d="M152.65 120.052C151.137 119.641 149.461 119.871 148.114 120.674C146.767 121.477 145.768 122.843 145.409 124.37C145.08 125.773 145.335 127.382 146.352 128.405C147.381 129.44 149.013 129.696 150.432 129.353C152.068 128.958 153.511 127.82 154.276 126.321C155.041 124.822 155.117 122.987 154.477 121.429L152.65 120.052Z" fill="white"/>
<path opacity="0.72" d="M196.877 128.648C220.881 165.737 203.246 202.317 203.246 202.317L211.792 214.53L186.515 232.219L177.969 220.006C177.969 220.006 163.969 221.41 147.023 215.363C175.333 187.863 170.779 133.793 166.725 108.417C177.788 110.476 188.797 116.169 196.877 128.648Z" fill="black"/>
<path d="M198.589 242.155C199.37 241.651 205.766 247.787 212.845 242.834C219.922 237.88 216.477 228.201 216.477 228.201L198.589 242.155Z" fill="#F66B3E"/>
<path d="M179.316 227.442C179.316 227.442 185.144 237.698 186.741 238.051C188.339 238.404 217.331 217.747 217.537 216.499C217.743 215.251 212.071 205.989 210.112 205.89C208.153 205.791 179.316 227.442 179.316 227.442Z" fill="#1E659C"/>
<mask id="mask0_2_8" style="mask-type:luminance" maskUnits="userSpaceOnUse" x="179" y="205" width="39" height="34">
<path d="M179.316 227.442C179.316 227.442 185.144 237.698 186.741 238.051C188.339 238.404 217.331 217.747 217.537 216.499C217.743 215.251 212.071 205.989 210.112 205.89C208.153 205.791 179.316 227.442 179.316 227.442Z" fill="white"/>
</mask>
<g mask="url(#mask0_2_8)">
<path opacity="0.72" d="M186.29 219.897C184.698 217.836 181.363 220.152 182.964 222.224C186.068 226.24 189.057 230.337 191.935 234.517C193.416 236.67 196.744 234.344 195.261 232.19C192.383 228.008 189.394 223.912 186.29 219.897Z" fill="black"/>
</g>
<mask id="mask1_2_8" style="mask-type:luminance" maskUnits="userSpaceOnUse" x="179" y="205" width="39" height="34">
<path d="M179.316 227.442C179.316 227.442 185.144 237.698 186.741 238.051C188.339 238.404 217.331 217.747 217.537 216.499C217.743 215.251 212.071 205.989 210.112 205.89C208.153 205.791 179.316 227.442 179.316 227.442Z" fill="white"/>
</mask>
<g mask="url(#mask1_2_8)">
<path opacity="0.72" d="M194.609 212.619C193.056 210.524 189.724 212.843 191.283 214.946C195.266 220.321 198.844 225.934 202.031 231.815C203.274 234.107 206.59 231.761 205.358 229.487C202.17 223.607 198.593 217.993 194.609 212.619Z" fill="black"/>
</g>
<mask id="mask2_2_8" style="mask-type:luminance" maskUnits="userSpaceOnUse" x="179" y="205" width="39" height="34">
<path d="M179.316 227.442C179.316 227.442 185.144 237.698 186.741 238.051C188.339 238.404 217.331 217.747 217.537 216.499C217.743 215.251 212.071 205.989 210.112 205.89C208.153 205.791 179.316 227.442 179.316 227.442Z" fill="white"/>
</mask>
<g mask="url(#mask2_2_8)">
<path opacity="0.72" d="M204.82 208.343C202.992 206.484 200.411 209.622 202.231 211.472C205.786 215.083 208.6 219.23 210.666 223.857C211.726 226.23 215.558 224.883 214.492 222.496C212.113 217.169 208.91 212.5 204.82 208.343Z" fill="black"/>
</g>
<path d="M189.361 235.479C189.361 235.479 194.08 243.781 195.372 244.068C196.663 244.354 220.133 227.631 220.3 226.622C220.467 225.613 215.875 218.114 214.29 218.034C212.705 217.953 189.361 235.479 189.361 235.479Z" fill="#1E659C"/>
<mask id="mask3_2_8" style="mask-type:luminance" maskUnits="userSpaceOnUse" x="189" y="218" width="32" height="27">
<path d="M189.361 235.479C189.361 235.479 194.08 243.781 195.372 244.068C196.663 244.354 220.133 227.631 220.3 226.622C220.467 225.613 215.875 218.114 214.29 218.034C212.705 217.953 189.361 235.479 189.361 235.479Z" fill="white"/>
</mask>
<g mask="url(#mask3_2_8)">
<path opacity="0.72" d="M198.227 228.399C196.205 226.752 193.606 229.872 195.638 231.528C199.275 234.492 200.653 239.173 203.369 242.87C204.913 244.972 208.244 242.653 206.695 240.543C203.726 236.5 202.22 231.655 198.227 228.399Z" fill="black"/>
</g>
<mask id="mask4_2_8" style="mask-type:luminance" maskUnits="userSpaceOnUse" x="189" y="218" width="32" height="27">
<path d="M189.361 235.479C189.361 235.479 194.08 243.781 195.372 244.068C196.663 244.354 220.133 227.631 220.3 226.622C220.467 225.613 215.875 218.114 214.29 218.034C212.705 217.953 189.361 235.479 189.361 235.479Z" fill="white"/>
</mask>
<g mask="url(#mask4_2_8)">
<path opacity="0.72" d="M206.511 221.65C204.51 219.976 201.912 223.099 203.923 224.779C207.299 227.601 208.957 231.787 211.364 235.371C212.822 237.541 216.147 235.212 214.691 233.044C212.05 229.112 210.222 224.75 206.511 221.65Z" fill="black"/>
</g>
<path d="M111.973 214.151C111.21 212.846 109.158 212.096 107.827 213.064L102.217 217.148C100.896 218.109 100.245 219.78 101.13 221.293C101.893 222.598 103.945 223.348 105.274 222.38C107.145 221.019 109.015 219.658 110.885 218.296C112.207 217.334 112.858 215.662 111.973 214.151Z" fill="#2682BF"/>
<path d="M93.2522 182.134C92.7885 180.445 91.1399 179.718 89.5252 180.018C87.3274 180.428 85.1284 180.836 82.9306 181.246C81.3209 181.545 80.4073 183.491 80.8145 184.973C81.2782 186.662 82.9268 187.389 84.5415 187.089C86.7393 186.679 88.9383 186.271 91.1361 185.861C92.7458 185.561 93.6594 183.616 93.2522 182.134Z" fill="#2682BF"/>
<path d="M84.216 135.012C82.6855 135.179 81.1537 135.345 79.6232 135.512C78.0524 135.683 76.5144 136.782 76.5935 138.542C76.6601 140.036 77.9356 141.755 79.6232 141.571C81.1537 141.404 82.6855 141.238 84.216 141.071C85.7867 140.9 87.3236 139.801 87.2456 138.041C87.179 136.547 85.9036 134.828 84.216 135.012Z" fill="#2682BF"/>
<path d="M122.602 100.349C121.617 98.9866 120.744 97.4209 120.243 96.0273C119.688 94.4893 118.18 93.4538 116.515 93.9112C115.029 94.3196 113.843 96.0914 114.399 97.6383C115.139 99.6928 116.088 101.637 117.37 103.407C118.327 104.731 120.005 105.378 121.515 104.494C122.824 103.729 123.567 101.682 122.602 100.349Z" fill="#2682BF"/>
<path d="M185.984 82.6307C184.247 82.1532 182.88 83.2264 182.257 84.7468C181.362 86.9333 181.009 89.3522 181.215 91.7046C181.358 93.3344 182.505 94.7342 184.244 94.7342C185.773 94.7342 187.417 93.3444 187.274 91.7046C187.107 89.7983 187.375 88.1271 188.1 86.3565C188.719 84.8423 187.426 83.0266 185.984 82.6307Z" fill="#2682BF"/>
<path d="M222.486 119.02C221.241 117.775 219.463 117.97 218.201 119.02C216.529 120.414 214.855 121.809 213.183 123.202C211.925 124.25 212.099 126.404 213.183 127.487C214.428 128.733 216.206 128.538 217.466 127.487C219.139 126.094 220.813 124.699 222.485 123.305C223.744 122.257 223.57 120.104 222.486 119.02Z" fill="#2682BF"/>
<path d="M1152.37 230.098L1142.32 223.152L1141.26 222.417L1145.99 216.86L1146.03 216.881L1156.09 223.382L1150.66 223.921L1152.37 230.098Z" fill="#F66B3E"/>
<path d="M1109.15 287.567L1101.5 282.282L1098.03 279.887L1102.78 274.323L1105.98 276.388L1112.87 280.852L1107.43 281.39L1109.15 287.567Z" fill="white"/>
<path d="M1077.61 308.184C1072.13 307.764 1029.9 279.535 1007.89 259.731C1004.48 256.677 1001.55 253.808 999.327 251.285C995.656 247.122 993.87 243.88 994.909 242.141C994.909 242.141 995.517 241.129 996.607 239.3C1006.48 222.78 1056.4 139.837 1063 138.186C1064.22 137.883 1067.59 138.765 1072.37 140.51C1073.09 140.777 1073.83 141.054 1074.63 141.361C1075.34 141.635 1076.09 141.935 1076.86 142.246C1077.51 142.51 1078.18 142.783 1078.86 143.066C1079.27 143.232 1079.67 143.398 1080.08 143.572C1080.66 143.817 1081.24 144.07 1081.84 144.325C1109.01 155.973 1155.32 181.054 1156.63 192.185C1156.7 192.85 1156.65 193.679 1156.43 194.669C1152.9 196.181 1151.03 200.213 1151.64 206.62C1150.07 209.725 1148.19 213.182 1146.04 216.881C1144.87 218.906 1143.64 220.994 1142.33 223.152C1132.23 239.785 1118.35 259.895 1105.98 276.389C1104.47 278.412 1102.97 280.385 1101.5 282.283C1089.78 297.501 1080.15 308.374 1077.61 308.184Z" fill="#1E659C"/>
<path d="M999.327 251.284C995.656 247.121 993.87 243.879 994.909 242.14C994.909 242.14 995.517 241.128 996.607 239.299C1006.48 222.779 1056.4 139.836 1063 138.185C1064.22 137.882 1067.59 138.764 1072.37 140.509L1069.45 144.935L1063.6 153.807L1004.13 244.008L999.327 251.284Z" fill="#F66B3E"/>
<path d="M1151.64 206.619C1141.85 201.725 1061.4 153.777 1061.38 152.019C1061.37 150.158 1063.66 146.421 1065.74 143.845C1067.58 141.552 1139.93 184.547 1156.44 194.665C1152.9 196.18 1151.03 200.215 1151.64 206.619Z" fill="#F7EFE7"/>
<path d="M1069.53 151.877L1076.38 154.923L1084.16 139.814L1077.22 144.059L1076.08 138.331L1069.53 151.877Z" fill="#FFB93E"/>
<path d="M1127.96 187.656L1134.17 191.517L1140.12 179.388L1134.26 181.996L1132.93 176.709L1127.96 187.656Z" fill="#FFB93E"/>
<path d="M1086.23 206.191C1086.23 206.191 1101.87 185.224 1113.25 194.92C1124.63 204.616 1093.06 212.911 1093.06 212.911C1093.06 212.911 1112.7 219.275 1110.02 229.59C1107.35 239.905 1085.99 219.602 1085.8 221.307C1085.62 223.015 1092.88 250.569 1077.77 245.172C1062.66 239.775 1075.51 216.561 1075.51 216.561C1075.51 216.561 1047.3 234.128 1049.92 216.785C1052.54 199.441 1071.38 207.119 1071.38 207.119C1071.38 207.119 1054.76 194.653 1068.48 185.25C1082.21 175.848 1086.23 206.191 1086.23 206.191Z" fill="#FFB93E"/>
<path d="M1082.2 207.849C1080.44 208.317 1079.28 210.314 1079.64 212.101C1080.33 215.536 1085.52 216.463 1087.24 213.308C1088.75 210.542 1084.86 207.146 1082.2 207.849Z" fill="white"/>
<path d="M1033.21 228.671C1033.21 228.671 1027.09 236.912 1027.5 238.106C1027.91 239.302 1086.58 280.363 1088.96 278.345C1091.34 276.328 1095.7 271.897 1095.08 269.704C1094.46 267.514 1036.21 228.847 1033.21 228.671Z" fill="#F7EFE7"/>
<path d="M1023.03 242.822C1023.03 242.822 1016.9 251.063 1017.31 252.257C1017.72 253.453 1076.39 294.514 1078.77 292.496C1081.15 290.479 1085.51 286.048 1084.89 283.855C1084.27 281.664 1026.02 242.996 1023.03 242.822Z" fill="#F7EFE7"/>
<path opacity="0.72" d="M1101.5 282.282C1089.78 297.502 1080.15 308.375 1077.61 308.184C1072.13 307.765 1029.9 279.535 1007.89 259.732C1004.48 256.677 1001.55 253.809 999.327 251.285C995.656 247.122 993.87 243.88 994.909 242.141C994.909 242.141 995.517 241.129 996.607 239.3C998.991 241.113 1001.5 242.679 1004.13 244.01C1008.7 246.338 1013.62 247.962 1018.79 248.986C1024.3 250.086 1030.09 250.508 1036.05 250.37C1038.56 250.327 1041.11 250.169 1043.67 249.925C1049.86 249.342 1056.18 248.243 1062.5 246.75C1066.53 245.811 1070.56 244.709 1074.55 243.475C1078.8 242.177 1083.01 240.746 1087.13 239.213C1093.06 237.03 1098.81 234.657 1104.29 232.212C1106.24 231.347 1108.15 230.476 1110.02 229.591C1134.13 218.31 1151.64 206.622 1151.64 206.622C1150.07 209.727 1148.18 213.184 1146.04 216.883L1156.09 223.385L1150.66 223.923L1152.37 230.1L1142.33 223.155C1132.22 239.788 1118.34 259.898 1105.98 276.392L1112.87 280.856L1107.44 281.394L1109.15 287.571L1101.5 282.282Z" fill="black"/>
<path d="M855.343 675.964C853.71 675.274 831.483 632.639 819.341 606.845C819.248 606.648 819.155 606.451 819.07 606.259C822.447 594.175 834.251 573.812 834.251 573.812C850.913 564.879 871.122 555.45 873.934 557.867C878.737 562.007 917.754 637.121 917.754 637.121C917.754 637.121 857.635 676.936 855.343 675.964Z" fill="#2682BF"/>
<path d="M818.805 607.253C818.886 606.925 818.968 606.598 819.068 606.259C822.445 594.175 834.25 573.812 834.25 573.812L842.497 594.328C838.319 592.667 822.444 604.49 819.34 606.845C818.99 607.106 818.805 607.253 818.805 607.253Z" fill="#F7EFE7"/>
<path d="M646.728 628.065C646.728 628.065 660.032 633.121 662.127 634.799C664.221 636.478 732.978 770.614 732.185 774.447C731.392 778.278 633.201 829.276 628.874 826.783C624.545 824.289 619.163 820.79 619.163 820.79L646.728 628.065Z" fill="#F66B3E"/>
<path d="M707.389 740.734C715.423 757.221 720.705 769.25 719.973 770.804C718.893 773.073 702.621 783.263 683.411 793.913C683.411 793.913 702.167 760.485 707.389 740.734Z" fill="#FFB93E"/>
<path d="M646.73 628.062C649.403 629.15 686.57 698.062 706.932 739.784C707.089 740.103 707.245 740.421 707.389 740.732C702.167 760.484 683.411 793.911 683.411 793.911C656.485 808.837 623.795 824.654 619.158 820.783C611.244 814.153 545.995 692.738 545.995 692.738C545.995 692.738 642.974 626.533 646.73 628.062Z" fill="#F7EFE7"/>
<path d="M547.574 676.507C547.574 676.507 554.835 697.012 557.507 697.635C560.18 698.26 565.609 695.23 565.594 693.183C565.579 691.136 556.262 671.905 554.769 672.261C553.279 672.618 547.574 676.507 547.574 676.507Z" fill="#1E659C"/>
<path d="M563.667 666.862C563.667 666.862 570.927 687.367 573.599 687.99C576.273 688.615 581.701 685.586 581.687 683.539C581.672 681.492 572.355 662.261 570.862 662.617C569.369 662.973 563.667 666.862 563.667 666.862Z" fill="#2174A3"/>
<path d="M579.759 657.218C579.759 657.218 587.02 677.721 589.692 678.346C592.365 678.971 597.794 675.941 597.778 673.894C597.764 671.847 588.446 652.616 586.953 652.972C585.462 653.327 579.759 657.218 579.759 657.218Z" fill="#1E659C"/>
<path d="M595.852 647.573C595.852 647.573 603.112 668.078 605.784 668.702C608.458 669.326 613.886 666.297 613.872 664.25C613.858 662.203 604.54 642.972 603.047 643.328C601.555 643.683 595.852 647.573 595.852 647.573Z" fill="#2174A3"/>
<path d="M611.942 637.929C611.942 637.929 619.203 658.432 621.875 659.057C624.549 659.682 629.977 656.652 629.963 654.605C629.949 652.558 620.631 633.327 619.138 633.683C617.647 634.038 611.942 637.929 611.942 637.929Z" fill="#1E659C"/>
<path d="M628.035 628.283C628.035 628.283 635.296 648.786 637.968 649.411C640.641 650.036 646.07 647.006 646.056 644.959C646.042 642.912 636.724 623.681 635.231 624.037C633.738 624.394 628.035 628.283 628.035 628.283Z" fill="#2174A3"/>
<path d="M707.793 739.108C707.667 739.644 707.543 740.18 707.388 740.734C702.165 760.485 683.409 793.913 683.409 793.913L669.512 760.696C676.353 763.305 701.931 743.69 706.931 739.785C707.495 739.351 707.793 739.108 707.793 739.108Z" fill="#1E659C"/>
<path d="M663.604 693.497C663.353 693.907 662.972 694.245 662.494 694.444C658.04 696.293 652.991 698.388 647.568 698.325C647.226 698.321 646.88 698.306 646.531 698.28C646.225 698.663 645.919 699.03 645.619 699.384C641.301 704.463 636.961 707.834 632.351 709.684C629.005 711.029 625.524 711.515 622.267 711.166C614.139 719.98 606.102 724.079 598.355 723.356C595.402 728.235 591.281 732.343 586.375 735.216C585.244 735.879 583.792 735.499 583.129 734.369C582.467 733.237 582.849 731.785 583.977 731.123C587.786 728.893 591.062 725.785 593.519 722.126C590.263 720.706 587.392 718.096 586.562 714.324C585.917 711.389 587.062 708.097 589.477 705.939C591.546 704.093 594.203 703.476 596.581 704.292C598.536 704.964 600.033 706.365 600.907 708.341C602.383 711.679 601.758 715.845 600.692 718.676C605.835 718.458 611.313 715.473 617.028 709.773C616.321 709.458 615.639 709.093 614.987 708.68C609.306 705.073 606.778 697.762 609.232 692.038C610.58 688.902 613.629 686.45 617.2 685.615C620.5 684.846 623.731 685.546 626.063 687.54C629.375 690.371 630.643 695.533 629.218 700.383C628.572 702.587 627.489 704.575 626.203 706.403C627.666 706.23 629.147 705.859 630.585 705.282C634.235 703.816 637.76 701.13 641.337 697.084C637.989 695.743 635.02 693.292 633.697 689.592C632.566 686.433 633.278 682.57 635.522 679.734C637.479 677.262 640.224 676.026 643.054 676.343C648.445 676.948 651.701 682.649 651.36 687.595C651.213 689.728 650.57 691.694 649.683 693.479C653.424 693.074 657.102 691.547 660.678 690.063C661.887 689.561 663.276 690.135 663.778 691.344C664.079 692.075 663.99 692.871 663.604 693.497ZM644.424 693.12C645.562 691.365 646.481 689.363 646.625 687.27C646.811 684.575 645.096 681.346 642.523 681.058C640.925 680.878 639.779 681.998 639.239 682.681C638.014 684.229 637.577 686.368 638.161 687.996C639.128 690.699 641.71 692.373 644.424 693.12ZM620.511 705.996C622.496 703.656 623.949 701.485 624.666 699.046C625.395 696.559 625.179 693.028 622.978 691.145C621.807 690.144 620.092 689.813 618.276 690.237C616.145 690.733 614.351 692.14 613.589 693.908C612.053 697.492 613.82 702.321 617.528 704.677C618.431 705.249 619.437 705.69 620.511 705.996ZM591.778 710.504C591.233 711.391 590.998 712.427 591.192 713.303C591.686 715.547 593.673 717.123 595.846 717.954C595.923 717.783 596 717.61 596.075 717.436C597.139 714.966 597.341 712.014 596.565 710.26C596.224 709.491 595.738 709.021 595.037 708.779C594.019 708.429 593.093 709.068 592.632 709.479C592.297 709.777 592.01 710.127 591.778 710.504Z" fill="#EADBCE"/>
<path d="M688.934 735.872C688.683 736.282 688.302 736.62 687.825 736.819C683.37 738.668 678.321 740.763 672.898 740.7C672.556 740.696 672.21 740.68 671.861 740.655C671.554 741.038 671.249 741.405 670.949 741.759C666.631 746.841 662.29 750.21 657.68 752.061C654.333 753.404 650.854 753.891 647.595 753.541C639.468 762.355 631.431 766.454 623.684 765.731C620.727 770.596 616.609 774.718 611.704 777.591C610.573 778.254 609.121 777.874 608.458 776.744C607.798 775.612 608.178 774.16 609.306 773.498C613.115 771.266 616.39 768.16 618.847 764.501C615.591 763.081 612.72 760.471 611.89 756.699C611.244 753.764 612.391 750.472 614.805 748.314C616.875 746.468 619.531 745.851 621.909 746.667C623.866 747.339 625.362 748.74 626.235 750.716C627.713 754.054 627.086 758.22 626.021 761.05C631.164 760.833 636.642 757.848 642.356 752.148C641.649 751.833 640.968 751.468 640.318 751.055C634.636 747.448 632.107 740.136 634.562 734.413C635.91 731.28 638.958 728.824 642.53 727.99C645.831 727.221 649.061 727.921 651.393 729.914C654.705 732.745 655.973 737.908 654.548 742.758C653.902 744.962 652.818 746.944 651.533 748.779C652.996 748.607 654.476 748.235 655.914 747.657C659.565 746.191 663.09 743.506 666.665 739.46C663.318 738.12 660.349 735.668 659.025 731.969C657.896 728.81 658.611 724.935 660.851 722.111C662.809 719.638 665.554 718.4 668.381 718.719C673.772 719.324 677.028 725.026 676.687 729.971C676.54 732.104 675.897 734.071 675.01 735.855C678.751 735.451 682.43 733.922 686.006 732.438C687.217 731.936 688.605 732.51 689.107 733.719C689.408 734.451 689.319 735.247 688.934 735.872ZM669.753 735.496C670.911 733.726 671.808 731.738 671.954 729.646C672.139 726.951 670.424 723.724 667.851 723.434C666.254 723.254 665.11 724.373 664.569 725.056C663.336 726.613 662.906 728.742 663.49 730.373C664.457 733.076 667.038 734.748 669.753 735.496ZM645.84 748.372C647.643 746.242 649.254 743.942 649.995 741.422C650.724 738.935 650.508 735.404 648.307 733.521C647.136 732.52 645.421 732.189 643.604 732.613C641.471 733.111 639.68 734.516 638.918 736.285C637.381 739.869 639.148 744.699 642.857 747.053C643.761 747.626 644.765 748.067 645.84 748.372ZM617.107 752.881C616.561 753.767 616.327 754.803 616.52 755.68C617.015 757.923 619.001 759.5 621.174 760.331C621.252 760.16 621.328 759.986 621.403 759.812C622.468 757.342 622.67 754.39 621.894 752.636C621.553 751.867 621.067 751.396 620.364 751.156C619.346 750.805 618.42 751.444 617.961 751.854C617.626 752.154 617.339 752.503 617.107 752.881Z" fill="#EADBCE"/>
</svg>
