<svg width="127" height="27" viewBox="0 0 127 27" fill="none" xmlns="http://www.w3.org/2000/svg">
<path d="M8.91239 14.3C9.92039 14.3 10.6884 14.072 11.2164 13.616C11.7684 13.136 12.0444 12.416 12.0444 11.456C12.0444 10.544 11.7564 9.848 11.1804 9.368C10.6284 8.864 9.81239 8.612 8.73239 8.612C8.34839 8.612 8.02439 8.624 7.76039 8.648C7.52039 8.648 7.26839 8.672 7.00439 8.72V14.3H8.91239ZM7.04039 25.856C6.77639 25.928 6.35639 26 5.78039 26.072C5.22839 26.144 4.67639 26.18 4.12439 26.18C3.57239 26.18 3.08039 26.132 2.64839 26.036C2.24039 25.964 1.89239 25.82 1.60439 25.604C1.31639 25.388 1.10039 25.088 0.956391 24.704C0.812391 24.32 0.740391 23.816 0.740391 23.192V6.236C0.740391 5.732 0.872391 5.348 1.13639 5.084C1.42439 4.796 1.80839 4.568 2.28839 4.4C3.10439 4.112 4.02839 3.908 5.06039 3.788C6.11639 3.644 7.17239 3.572 8.22839 3.572C11.5404 3.572 14.0724 4.28 15.8244 5.696C17.5764 7.112 18.4524 9.032 18.4524 11.456C18.4524 12.632 18.2604 13.7 17.8764 14.66C17.5164 15.596 16.9644 16.412 16.2204 17.108C15.5004 17.78 14.5764 18.308 13.4484 18.692C12.3444 19.052 11.0604 19.232 9.59639 19.232H7.04039V25.856ZM38.4704 25.964C38.2304 26.036 37.8464 26.108 37.3184 26.18C36.8144 26.252 36.2864 26.288 35.7344 26.288C35.2064 26.288 34.7264 26.252 34.2944 26.18C33.8864 26.108 33.5384 25.964 33.2504 25.748C32.9624 25.532 32.7344 25.244 32.5664 24.884C32.4224 24.5 32.3504 24.008 32.3504 23.408V15.416C32.3504 14.432 32.0984 13.748 31.5944 13.364C31.1144 12.956 30.5144 12.752 29.7944 12.752C29.3144 12.752 28.8584 12.812 28.4264 12.932C27.9944 13.052 27.6464 13.196 27.3824 13.364V25.964C27.1424 26.036 26.7584 26.108 26.2304 26.18C25.7264 26.252 25.1984 26.288 24.6464 26.288C24.1184 26.288 23.6384 26.252 23.2064 26.18C22.7984 26.108 22.4504 25.964 22.1624 25.748C21.8744 25.532 21.6464 25.244 21.4784 24.884C21.3344 24.5 21.2624 24.008 21.2624 23.408V2.528C21.5264 2.48 21.9104 2.42 22.4144 2.348C22.9424 2.252 23.4704 2.204 23.9984 2.204C24.5264 2.204 24.9944 2.24 25.4024 2.312C25.8344 2.384 26.1944 2.528 26.4824 2.744C26.7704 2.96 26.9864 3.26 27.1304 3.644C27.2984 4.004 27.3824 4.484 27.3824 5.084V8.612C27.6944 8.492 28.1624 8.36 28.7864 8.216C29.4344 8.048 30.1424 7.964 30.9104 7.964C33.2864 7.964 35.1344 8.564 36.4544 9.764C37.7984 10.94 38.4704 12.704 38.4704 15.056V25.964ZM60.357 17.252C60.357 18.74 60.129 20.072 59.673 21.248C59.217 22.4 58.569 23.372 57.729 24.164C56.913 24.956 55.929 25.556 54.777 25.964C53.625 26.372 52.341 26.576 50.925 26.576C49.509 26.576 48.225 26.36 47.073 25.928C45.921 25.496 44.925 24.884 44.085 24.092C43.269 23.276 42.633 22.292 42.177 21.14C41.721 19.988 41.493 18.692 41.493 17.252C41.493 15.836 41.721 14.552 42.177 13.4C42.633 12.248 43.269 11.276 44.085 10.484C44.925 9.668 45.921 9.044 47.073 8.612C48.225 8.18 49.509 7.964 50.925 7.964C52.341 7.964 53.625 8.192 54.777 8.648C55.929 9.08 56.913 9.704 57.729 10.52C58.569 11.312 59.217 12.284 59.673 13.436C60.129 14.588 60.357 15.86 60.357 17.252ZM47.757 17.252C47.757 18.716 48.033 19.844 48.585 20.636C49.161 21.404 49.953 21.788 50.961 21.788C51.969 21.788 52.737 21.392 53.265 20.6C53.817 19.808 54.093 18.692 54.093 17.252C54.093 15.812 53.817 14.708 53.265 13.94C52.713 13.148 51.933 12.752 50.925 12.752C49.917 12.752 49.137 13.148 48.585 13.94C48.033 14.708 47.757 15.812 47.757 17.252ZM74.4307 14.912C74.4307 14.168 74.2147 13.628 73.7827 13.292C73.3747 12.932 72.8107 12.752 72.0907 12.752C71.6107 12.752 71.1307 12.812 70.6507 12.932C70.1947 13.052 69.7987 13.232 69.4627 13.472V25.964C69.2227 26.036 68.8387 26.108 68.3107 26.18C67.8067 26.252 67.2787 26.288 66.7267 26.288C66.1987 26.288 65.7187 26.252 65.2867 26.18C64.8787 26.108 64.5307 25.964 64.2427 25.748C63.9547 25.532 63.7267 25.244 63.5587 24.884C63.4147 24.5 63.3427 24.008 63.3427 23.408V12.608C63.3427 11.96 63.4747 11.432 63.7387 11.024C64.0267 10.616 64.4107 10.244 64.8907 9.908C65.7067 9.332 66.7267 8.864 67.9507 8.504C69.1987 8.144 70.5787 7.964 72.0907 7.964C74.8027 7.964 76.8907 8.564 78.3547 9.764C79.8187 10.94 80.5507 12.584 80.5507 14.696V25.964C80.3107 26.036 79.9267 26.108 79.3987 26.18C78.8947 26.252 78.3667 26.288 77.8147 26.288C77.2867 26.288 76.8067 26.252 76.3747 26.18C75.9667 26.108 75.6187 25.964 75.3307 25.748C75.0427 25.532 74.8147 25.244 74.6467 24.884C74.5027 24.5 74.4307 24.008 74.4307 23.408V14.912ZM84.187 3.644C84.187 2.732 84.487 1.964 85.087 1.34C85.711 0.715999 86.527 0.403999 87.535 0.403999C88.543 0.403999 89.347 0.715999 89.947 1.34C90.571 1.964 90.883 2.732 90.883 3.644C90.883 4.556 90.571 5.324 89.947 5.948C89.347 6.572 88.543 6.884 87.535 6.884C86.527 6.884 85.711 6.572 85.087 5.948C84.487 5.324 84.187 4.556 84.187 3.644ZM90.595 25.964C90.331 26.012 89.935 26.072 89.407 26.144C88.903 26.24 88.387 26.288 87.859 26.288C87.331 26.288 86.851 26.252 86.419 26.18C86.011 26.108 85.663 25.964 85.375 25.748C85.087 25.532 84.859 25.244 84.691 24.884C84.547 24.5 84.475 24.008 84.475 23.408V8.756C84.739 8.708 85.123 8.648 85.627 8.576C86.155 8.48 86.683 8.432 87.211 8.432C87.739 8.432 88.207 8.468 88.615 8.54C89.047 8.612 89.407 8.756 89.695 8.972C89.983 9.188 90.199 9.488 90.343 9.872C90.511 10.232 90.595 10.712 90.595 11.312V25.964ZM104.355 12.788C103.755 12.788 103.179 12.884 102.627 13.076C102.099 13.268 101.631 13.556 101.223 13.94C100.839 14.3 100.527 14.756 100.287 15.308C100.047 15.86 99.9271 16.508 99.9271 17.252C99.9271 18.74 100.347 19.856 101.187 20.6C102.051 21.344 103.095 21.716 104.319 21.716C105.039 21.716 105.663 21.632 106.191 21.464C106.719 21.296 107.187 21.116 107.595 20.924C108.075 21.26 108.435 21.632 108.675 22.04C108.915 22.424 109.035 22.892 109.035 23.444C109.035 24.428 108.567 25.196 107.631 25.748C106.695 26.276 105.399 26.54 103.743 26.54C102.231 26.54 100.863 26.324 99.6391 25.892C98.4151 25.436 97.3591 24.812 96.4711 24.02C95.6071 23.204 94.9351 22.232 94.4551 21.104C93.9751 19.976 93.7351 18.728 93.7351 17.36C93.7351 15.776 93.9871 14.396 94.4911 13.22C95.0191 12.02 95.7271 11.036 96.6151 10.268C97.5031 9.5 98.5231 8.924 99.6751 8.54C100.851 8.156 102.087 7.964 103.383 7.964C105.111 7.964 106.443 8.276 107.379 8.9C108.315 9.524 108.783 10.328 108.783 11.312C108.783 11.768 108.675 12.2 108.459 12.608C108.243 12.992 107.991 13.328 107.703 13.616C107.295 13.424 106.803 13.244 106.227 13.076C105.651 12.884 105.027 12.788 104.355 12.788ZM126.513 20.78C126.513 22.604 125.829 24.032 124.461 25.064C123.093 26.096 121.077 26.612 118.413 26.612C117.405 26.612 116.469 26.54 115.605 26.396C114.741 26.252 113.997 26.036 113.373 25.748C112.773 25.436 112.293 25.052 111.933 24.596C111.597 24.14 111.429 23.6 111.429 22.976C111.429 22.4 111.549 21.92 111.789 21.536C112.029 21.128 112.317 20.792 112.653 20.528C113.349 20.912 114.141 21.26 115.029 21.572C115.941 21.86 116.985 22.004 118.161 22.004C118.905 22.004 119.469 21.896 119.853 21.68C120.261 21.464 120.465 21.176 120.465 20.816C120.465 20.48 120.321 20.216 120.033 20.024C119.745 19.832 119.265 19.676 118.593 19.556L117.513 19.34C115.425 18.932 113.865 18.296 112.833 17.432C111.825 16.544 111.321 15.284 111.321 13.652C111.321 12.764 111.513 11.96 111.897 11.24C112.281 10.52 112.821 9.92 113.517 9.44C114.213 8.96 115.041 8.588 116.001 8.324C116.985 8.06 118.065 7.928 119.241 7.928C120.129 7.928 120.957 8 121.725 8.144C122.517 8.264 123.201 8.456 123.777 8.72C124.353 8.984 124.809 9.332 125.145 9.764C125.481 10.172 125.649 10.664 125.649 11.24C125.649 11.792 125.541 12.272 125.325 12.68C125.133 13.064 124.881 13.388 124.569 13.652C124.377 13.532 124.089 13.412 123.705 13.292C123.321 13.148 122.901 13.028 122.445 12.932C121.989 12.812 121.521 12.716 121.041 12.644C120.585 12.572 120.165 12.536 119.781 12.536C118.989 12.536 118.377 12.632 117.945 12.824C117.513 12.992 117.297 13.268 117.297 13.652C117.297 13.916 117.417 14.132 117.657 14.3C117.897 14.468 118.353 14.624 119.025 14.768L120.141 15.02C122.445 15.548 124.077 16.28 125.037 17.216C126.021 18.128 126.513 19.316 126.513 20.78Z" fill="url(#paint0_linear_4_224)"/>
<defs>
<linearGradient id="paint0_linear_4_224" x1="63" y1="-12" x2="63" y2="45" gradientUnits="userSpaceOnUse">
<stop offset="0.445" stop-color="#4A7D01"/>
<stop offset="1" stop-color="#022A49"/>
</linearGradient>
</defs>
</svg>
