<svg width="495" height="425" viewBox="0 0 495 425" fill="none" xmlns="http://www.w3.org/2000/svg">
<g clip-path="url(#clip0_34_238)">
<path d="M106 349.31H14V423.31H106V349.31Z" fill="url(#paint0_linear_34_238)"/>
<path d="M225 286.31H143V423.31H225V286.31Z" fill="url(#paint1_linear_34_238)"/>
<path d="M344 423.31H262V356.045V224.31H344V342.73V423.31Z" fill="url(#paint2_linear_34_238)"/>
<path opacity="0.2" d="M65.7858 401.081L92.6984 349.145H109.834L98.2013 401.081H65.7858Z" fill="url(#paint3_linear_34_238)"/>
<path opacity="0.2" d="M192.693 337.156L219.606 286.499H253.417L241.783 337.156H192.693Z" fill="url(#paint4_linear_34_238)"/>
<path d="M467.565 162.103H385.402V423.706H467.565V162.103Z" fill="url(#paint5_linear_34_238)"/>
<path d="M467.564 182.841V185.136C452.436 186.64 449.622 198.665 442.752 208.994C438.642 214.875 433.778 219.254 427.545 221.432C414.699 225.92 396.877 223.142 385.402 226.555V207.867C398.085 205.884 411.996 212.679 424.26 209.274C441.33 203.005 447.054 181.252 467.564 182.841Z" fill="url(#paint6_linear_34_238)"/>
<path d="M467.564 264.163V281.542C432.329 280.492 439.561 230.496 385.402 248.855V242.546C430.844 232.221 437.819 265.176 467.564 264.163Z" fill="url(#paint7_linear_34_238)"/>
<path d="M467.564 293.222V312.624C411.291 310.558 417.932 339.469 385.402 337.008V328.903C395.96 329.252 409.703 325.265 418.586 319.389C434.526 308.846 446.102 295.615 467.564 293.222Z" fill="url(#paint8_linear_34_238)"/>
<path d="M461.805 392.236C453.667 419.457 408.336 407.296 385.402 408.92V394.317C402.452 391.073 420.922 406.297 437.262 400.31C451.336 396.058 453.682 369.227 439.39 365.362C422.871 359.99 395.112 374.695 385.402 380.652V368.856C405.609 358.065 452.028 353.185 461.418 378.479C463.058 382.897 463.151 387.731 461.805 392.236Z" fill="url(#paint9_linear_34_238)"/>
<path d="M429.724 271.876C430.155 271.74 430.642 271.626 431.186 271.536C431.753 271.445 432.263 271.4 432.716 271.4C433.237 271.4 433.736 271.456 434.212 271.57C434.711 271.66 435.153 271.83 435.538 272.08C435.923 272.306 436.229 272.624 436.456 273.032C436.683 273.44 436.796 273.95 436.796 274.562V283.606H439.822C439.958 283.855 440.094 284.184 440.23 284.592C440.366 285 440.434 285.43 440.434 285.884C440.434 286.745 440.241 287.357 439.856 287.72C439.471 288.082 438.983 288.264 438.394 288.264H436.796V292.276C436.547 292.321 436.173 292.378 435.674 292.446C435.175 292.536 434.699 292.582 434.246 292.582C433.747 292.582 433.305 292.559 432.92 292.514C432.535 292.468 432.206 292.366 431.934 292.208C431.685 292.026 431.492 291.777 431.356 291.46C431.22 291.142 431.152 290.712 431.152 290.168V288.264H422.618C422.097 287.992 421.643 287.595 421.258 287.074C420.895 286.53 420.714 285.872 420.714 285.102C420.714 284.671 420.771 284.195 420.884 283.674C420.997 283.152 421.19 282.699 421.462 282.314L429.724 271.876ZM431.458 277.214H431.356L426.834 283.606H431.458V277.214Z" fill="#FFB93E"/>
<path d="M432.891 15.9201L440.632 31.6003C441.053 32.4528 441.867 33.0446 442.809 33.181L460.119 35.6959C462.49 36.0406 463.438 38.9538 461.721 40.6259L449.196 52.8314C448.515 53.4952 448.203 54.4524 448.364 55.3902L451.321 72.6243C451.725 74.9857 449.247 76.7858 447.126 75.6714L431.644 67.5348C430.802 67.0927 429.795 67.0927 428.954 67.5348L413.471 75.6714C411.35 76.7858 408.871 74.9857 409.276 72.6243L412.233 55.3902C412.394 54.4524 412.083 53.4964 411.401 52.8314L398.876 40.6259C397.161 38.9538 398.107 36.0406 400.478 35.6959L417.788 33.181C418.73 33.0446 419.544 32.4528 419.965 31.6003L427.706 15.9201C428.766 13.773 431.83 13.773 432.891 15.9201Z" fill="url(#paint10_linear_34_238)"/>
<path d="M430.299 16.7458C430.486 16.7458 430.623 16.8311 430.707 16.9991L438.448 32.6792C439.224 34.2515 440.723 35.3403 442.459 35.5924L459.77 38.1073C459.955 38.1341 460.079 38.2388 460.136 38.4166C460.195 38.5944 460.156 38.7515 460.022 38.8818L447.496 51.0874C446.24 52.3113 445.667 54.0736 445.963 55.8018L448.92 73.0359C448.937 73.1345 448.942 73.2636 448.831 73.3951C448.738 73.5047 448.601 73.5729 448.473 73.5729C448.404 73.5729 448.336 73.5535 448.261 73.5145L432.778 65.3779C432.016 64.9772 431.159 64.7665 430.299 64.7665C429.438 64.7665 428.581 64.9784 427.819 65.3779L412.337 73.5145C412.261 73.5535 412.193 73.5729 412.125 73.5729C411.997 73.5729 411.859 73.5047 411.766 73.3951C411.656 73.2636 411.66 73.1333 411.677 73.0359L414.634 55.8018C414.93 54.0736 414.358 52.3113 413.102 51.0874L400.575 38.8818C400.441 38.7515 400.402 38.5944 400.461 38.4166C400.518 38.2388 400.642 38.1341 400.828 38.1073L418.138 35.5924C419.874 35.3403 421.372 34.2515 422.15 32.6792L429.89 16.9991C429.975 16.8311 430.111 16.7458 430.299 16.7458ZM430.299 14.3101C429.268 14.3101 428.236 14.8471 427.706 15.9213L419.965 31.6014C419.544 32.4539 418.73 33.0458 417.788 33.1822L400.478 35.6971C398.107 36.0418 397.161 38.9549 398.876 40.6271L411.401 52.8326C412.082 53.4963 412.394 54.4536 412.233 55.3913L409.276 72.6254C408.956 74.4937 410.441 76.0099 412.125 76.0099C412.569 76.0099 413.027 75.904 413.471 75.6713L428.954 67.5347C429.375 67.3131 429.837 67.2023 430.299 67.2023C430.76 67.2023 431.223 67.3131 431.644 67.5347L447.126 75.6713C447.569 75.904 448.028 76.0099 448.473 76.0099C450.157 76.0099 451.643 74.4924 451.321 72.6254L448.364 55.3913C448.203 54.4536 448.514 53.4975 449.196 52.8326L461.721 40.6271C463.437 38.9549 462.49 36.0418 460.119 35.6971L442.809 33.1822C441.867 33.0458 441.053 32.4539 440.632 31.6014L432.891 15.9213C432.361 14.8471 431.329 14.3101 430.299 14.3101Z" fill="url(#paint11_linear_34_238)"/>
<path opacity="0.5" d="M447.13 75.6667L435.364 69.4873L401.429 35.5634L416.761 33.3311L450.344 66.9029L451.323 72.6221C451.725 74.9811 449.246 76.7835 447.13 75.6667Z" fill="url(#paint12_linear_34_238)"/>
<path opacity="0.5" d="M449.197 52.8291C448.511 53.4953 448.208 54.455 448.364 55.3952L448.992 59.0476L420.484 30.5493L423.943 23.5271L451.255 50.8306L449.197 52.8291Z" fill="url(#paint13_linear_34_238)"/>
<path d="M155.846 1.37989L161.358 11.7994C161.658 12.3659 162.238 12.7592 162.908 12.8498L175.235 14.521C176.923 14.75 177.598 16.6858 176.376 17.797L167.457 25.9076C166.972 26.3486 166.75 26.9847 166.864 27.6079L168.97 39.06C169.258 40.6292 167.493 41.8253 165.983 41.0848L154.958 35.678C154.358 35.3843 153.642 35.3843 153.042 35.678L142.017 41.0848C140.506 41.8253 138.741 40.6292 139.03 39.06L141.135 27.6079C141.25 26.9847 141.029 26.3494 140.543 25.9076L131.624 17.797C130.402 16.6858 131.076 14.75 132.765 14.521L145.091 12.8498C145.762 12.7592 146.341 12.3659 146.641 11.7994L152.154 1.37989C152.908 -0.0468762 155.09 -0.0468762 155.846 1.37989Z" fill="url(#paint14_linear_34_238)"/>
<path d="M154 1.92862C154.133 1.92862 154.231 1.98528 154.29 2.09696L159.803 12.5165C160.355 13.5612 161.423 14.2847 162.659 14.4523L174.986 16.1234C175.118 16.1412 175.206 16.2108 175.247 16.329C175.289 16.4471 175.261 16.5515 175.166 16.6381L166.246 24.7487C165.351 25.5621 164.944 26.7331 165.154 27.8815L167.26 39.3336C167.272 39.3991 167.276 39.4849 167.197 39.5723C167.131 39.6452 167.033 39.6905 166.942 39.6905C166.893 39.6905 166.844 39.6775 166.791 39.6516L155.765 34.2448C155.223 33.9786 154.612 33.8386 154 33.8386C153.387 33.8386 152.777 33.9794 152.234 34.2448L141.209 39.6516C141.155 39.6775 141.107 39.6905 141.058 39.6905C140.967 39.6905 140.869 39.6452 140.803 39.5723C140.724 39.4849 140.728 39.3983 140.74 39.3336L142.845 27.8815C143.056 26.7331 142.648 25.5621 141.754 24.7487L132.834 16.6381C132.739 16.5515 132.711 16.4471 132.752 16.329C132.793 16.2108 132.882 16.1412 133.014 16.1234L145.34 14.4523C146.576 14.2847 147.643 13.5612 148.197 12.5165L153.709 2.09696C153.769 1.98528 153.866 1.92862 154 1.92862ZM154 0.310059C153.266 0.310059 152.531 0.66695 152.154 1.38074L146.641 11.8002C146.341 12.3667 145.762 12.76 145.091 12.8507L132.765 14.5218C131.076 14.7509 130.402 16.6867 131.624 17.7978L140.543 25.9084C141.028 26.3495 141.25 26.9856 141.135 27.6087L139.03 39.0609C138.802 40.3023 139.859 41.3099 141.058 41.3099C141.375 41.3099 141.701 41.2395 142.017 41.0849L153.042 35.6781C153.342 35.5308 153.671 35.4571 154 35.4571C154.329 35.4571 154.658 35.5308 154.958 35.6781L165.983 41.0849C166.298 41.2395 166.625 41.3099 166.942 41.3099C168.141 41.3099 169.199 40.3015 168.97 39.0609L166.864 27.6087C166.75 26.9856 166.971 26.3503 167.457 25.9084L176.376 17.7978C177.597 16.6867 176.923 14.7509 175.235 14.5218L162.908 12.8507C162.238 12.76 161.658 12.3667 161.358 11.8002L155.846 1.38074C155.469 0.66695 154.734 0.310059 154 0.310059Z" fill="url(#paint15_linear_34_238)"/>
<path opacity="0.5" d="M165.986 41.0817L157.607 36.9754L133.442 14.4329L144.36 12.9495L168.274 35.2581L168.972 39.0585C169.258 40.6261 167.492 41.8238 165.986 41.0817Z" fill="url(#paint16_linear_34_238)"/>
<path opacity="0.5" d="M167.458 25.9061C166.969 26.3488 166.753 26.9865 166.864 27.6113L167.311 30.0383L147.011 11.1011L149.474 6.43481L168.923 24.5781L167.458 25.9061Z" fill="url(#paint17_linear_34_238)"/>
<path d="M480.202 97.3098H371.377V102.687H480.202V97.3098Z" fill="url(#paint18_linear_34_238)"/>
<path d="M480.202 136.698H371.377V142.075H480.202V136.698Z" fill="url(#paint19_linear_34_238)"/>
<path d="M485.58 102.687H480.201V136.698H485.58V102.687Z" fill="url(#paint20_linear_34_238)"/>
<path d="M371.379 102.687H366V136.698H371.379V102.687Z" fill="url(#paint21_linear_34_238)"/>
<path d="M388.78 118.21H390.42V125.15L389.66 125.31C389.407 125.31 389.193 125.23 389.02 125.07C388.86 124.896 388.78 124.683 388.78 124.43V118.21ZM389.66 125.31V123.91H396.16C396.227 123.963 396.28 124.05 396.32 124.17C396.36 124.29 396.38 124.423 396.38 124.57C396.38 124.796 396.32 124.976 396.2 125.11C396.08 125.243 395.92 125.31 395.72 125.31H389.66ZM390.42 119.41H388.78V113.19C388.847 113.163 388.947 113.136 389.08 113.11C389.227 113.07 389.38 113.05 389.54 113.05C389.833 113.05 390.053 113.11 390.2 113.23C390.347 113.336 390.42 113.523 390.42 113.79V119.41ZM398.904 121.71L398.824 120.45L404.864 119.63C404.811 118.896 404.558 118.296 404.104 117.83C403.651 117.35 403.024 117.11 402.224 117.11C401.398 117.11 400.711 117.41 400.164 118.01C399.631 118.596 399.364 119.443 399.364 120.55V120.99C399.458 122.056 399.804 122.87 400.404 123.43C401.018 123.976 401.851 124.25 402.904 124.25C403.464 124.25 403.971 124.156 404.424 123.97C404.878 123.783 405.238 123.583 405.504 123.37C405.651 123.463 405.764 123.576 405.844 123.71C405.938 123.83 405.984 123.97 405.984 124.13C405.984 124.383 405.838 124.623 405.544 124.85C405.264 125.063 404.884 125.236 404.404 125.37C403.938 125.503 403.411 125.57 402.824 125.57C401.798 125.57 400.904 125.383 400.144 125.01C399.398 124.636 398.818 124.083 398.404 123.35C398.004 122.603 397.804 121.696 397.804 120.63C397.804 119.87 397.911 119.196 398.124 118.61C398.351 118.01 398.658 117.503 399.044 117.09C399.444 116.676 399.918 116.363 400.464 116.15C401.011 115.923 401.604 115.81 402.244 115.81C403.058 115.81 403.771 115.983 404.384 116.33C405.011 116.676 405.498 117.163 405.844 117.79C406.204 118.403 406.384 119.11 406.384 119.91C406.384 120.203 406.318 120.416 406.184 120.55C406.051 120.67 405.864 120.743 405.624 120.77L398.904 121.71ZM415.537 115.89C415.764 115.89 415.944 115.95 416.077 116.07C416.224 116.19 416.297 116.363 416.297 116.59C416.297 116.763 416.224 117.09 416.077 117.57C415.931 118.05 415.737 118.623 415.497 119.29C415.257 119.956 414.991 120.656 414.697 121.39C414.417 122.11 414.124 122.81 413.817 123.49C413.524 124.156 413.251 124.736 412.997 125.23C412.931 125.283 412.811 125.33 412.637 125.37C412.477 125.41 412.304 125.43 412.117 125.43C411.891 125.43 411.691 125.39 411.517 125.31C411.344 125.243 411.224 125.143 411.157 125.01C411.011 124.743 410.817 124.356 410.577 123.85C410.351 123.33 410.104 122.743 409.837 122.09C409.571 121.436 409.297 120.763 409.017 120.07C408.751 119.363 408.504 118.69 408.277 118.05C408.051 117.396 407.864 116.823 407.717 116.33C407.811 116.196 407.937 116.09 408.097 116.01C408.257 115.93 408.417 115.89 408.577 115.89C408.817 115.89 409.004 115.95 409.137 116.07C409.271 116.19 409.384 116.39 409.477 116.67L410.717 120.25C410.824 120.556 410.964 120.936 411.137 121.39C411.311 121.843 411.484 122.296 411.657 122.75C411.831 123.203 411.971 123.583 412.077 123.89H412.157C412.691 122.543 413.191 121.216 413.657 119.91C414.124 118.59 414.524 117.303 414.857 116.05C415.031 115.943 415.257 115.89 415.537 115.89ZM418.943 121.71L418.863 120.45L424.903 119.63C424.85 118.896 424.597 118.296 424.143 117.83C423.69 117.35 423.063 117.11 422.263 117.11C421.437 117.11 420.75 117.41 420.203 118.01C419.67 118.596 419.403 119.443 419.403 120.55V120.99C419.497 122.056 419.843 122.87 420.443 123.43C421.057 123.976 421.89 124.25 422.943 124.25C423.503 124.25 424.01 124.156 424.463 123.97C424.917 123.783 425.277 123.583 425.543 123.37C425.69 123.463 425.803 123.576 425.883 123.71C425.977 123.83 426.023 123.97 426.023 124.13C426.023 124.383 425.877 124.623 425.583 124.85C425.303 125.063 424.923 125.236 424.443 125.37C423.977 125.503 423.45 125.57 422.863 125.57C421.837 125.57 420.943 125.383 420.183 125.01C419.437 124.636 418.857 124.083 418.443 123.35C418.043 122.603 417.843 121.696 417.843 120.63C417.843 119.87 417.95 119.196 418.163 118.61C418.39 118.01 418.697 117.503 419.083 117.09C419.483 116.676 419.957 116.363 420.503 116.15C421.05 115.923 421.643 115.81 422.283 115.81C423.097 115.81 423.81 115.983 424.423 116.33C425.05 116.676 425.537 117.163 425.883 117.79C426.243 118.403 426.423 119.11 426.423 119.91C426.423 120.203 426.357 120.416 426.223 120.55C426.09 120.67 425.903 120.743 425.663 120.77L418.943 121.71ZM428.894 120.03L430.494 120.27V125.27C430.428 125.296 430.328 125.323 430.194 125.35C430.061 125.39 429.914 125.41 429.754 125.41C429.474 125.41 429.261 125.356 429.114 125.25C428.968 125.13 428.894 124.943 428.894 124.69V120.03ZM430.494 121.03L428.894 120.81V112.35C428.961 112.323 429.061 112.296 429.194 112.27C429.341 112.23 429.488 112.21 429.634 112.21C429.928 112.21 430.141 112.27 430.274 112.39C430.421 112.496 430.494 112.676 430.494 112.93V121.03ZM442.64 125.57C441.64 125.57 440.787 125.39 440.08 125.03C439.373 124.656 438.833 124.136 438.46 123.47C438.1 122.79 437.92 122.003 437.92 121.11V119.47H439.54V120.97C439.54 122.036 439.833 122.843 440.42 123.39C441.02 123.923 441.76 124.19 442.64 124.19C443.52 124.19 444.253 123.923 444.84 123.39C445.44 122.843 445.74 122.036 445.74 120.97V119.47H447.38V121.11C447.38 122.003 447.193 122.79 446.82 123.47C446.46 124.136 445.927 124.656 445.22 125.03C444.513 125.39 443.653 125.57 442.64 125.57ZM439.54 120.29H437.92V113.19C437.987 113.163 438.087 113.136 438.22 113.11C438.367 113.07 438.52 113.05 438.68 113.05C438.973 113.05 439.187 113.11 439.32 113.23C439.467 113.336 439.54 113.523 439.54 113.79V120.29ZM447.38 120.29H445.74V113.19C445.807 113.163 445.907 113.136 446.04 113.11C446.187 113.07 446.34 113.05 446.5 113.05C446.793 113.05 447.013 113.11 447.16 113.23C447.307 113.336 447.38 113.523 447.38 113.79V120.29ZM454.491 125.57C453.917 125.57 453.377 125.483 452.871 125.31C452.377 125.15 452.017 124.97 451.791 124.77V123.29C452.057 123.543 452.391 123.77 452.791 123.97C453.204 124.156 453.697 124.25 454.271 124.25C455.204 124.25 455.951 123.97 456.511 123.41C457.084 122.836 457.371 121.923 457.371 120.67C457.371 119.79 457.224 119.096 456.931 118.59C456.651 118.07 456.271 117.696 455.791 117.47C455.324 117.243 454.817 117.13 454.271 117.13C453.791 117.13 453.384 117.19 453.051 117.31C452.717 117.43 452.417 117.563 452.151 117.71V124.35H450.551V117.75C450.551 117.483 450.597 117.27 450.691 117.11C450.784 116.95 450.977 116.783 451.271 116.61C451.631 116.41 452.057 116.23 452.551 116.07C453.057 115.896 453.631 115.81 454.271 115.81C455.151 115.81 455.944 115.983 456.651 116.33C457.371 116.663 457.937 117.19 458.351 117.91C458.777 118.616 458.991 119.536 458.991 120.67C458.991 121.763 458.797 122.676 458.411 123.41C458.037 124.13 457.511 124.67 456.831 125.03C456.151 125.39 455.371 125.57 454.491 125.57ZM452.151 123.81V128.91C452.084 128.936 451.984 128.963 451.851 128.99C451.717 129.03 451.571 129.05 451.411 129.05C451.131 129.05 450.917 128.99 450.771 128.87C450.624 128.75 450.551 128.563 450.551 128.31V123.77L452.151 123.81ZM463.249 113.67C463.249 114.07 463.242 114.596 463.229 115.25C463.229 115.89 463.215 116.59 463.189 117.35C463.175 118.096 463.155 118.843 463.129 119.59C463.102 120.323 463.075 120.983 463.049 121.57C462.969 121.623 462.869 121.67 462.749 121.71C462.642 121.75 462.522 121.77 462.389 121.77C462.202 121.77 462.049 121.73 461.929 121.65C461.809 121.57 461.742 121.443 461.729 121.27C461.702 120.883 461.675 120.35 461.649 119.67C461.622 118.99 461.602 118.25 461.589 117.45C461.575 116.636 461.562 115.843 461.549 115.07C461.549 114.296 461.549 113.63 461.549 113.07C461.829 112.896 462.129 112.81 462.449 112.81C462.702 112.81 462.895 112.883 463.029 113.03C463.175 113.163 463.249 113.376 463.249 113.67ZM461.289 124.41C461.289 124.09 461.389 123.823 461.589 123.61C461.789 123.396 462.062 123.29 462.409 123.29C462.755 123.29 463.029 123.396 463.229 123.61C463.429 123.823 463.529 124.09 463.529 124.41C463.529 124.73 463.429 124.996 463.229 125.21C463.029 125.423 462.755 125.53 462.409 125.53C462.062 125.53 461.789 125.423 461.589 125.21C461.389 124.996 461.289 124.73 461.289 124.41Z" fill="#A939F8"/>
<path d="M333.315 154.792C326.618 154.792 321.19 160.219 321.19 166.914C321.19 160.219 315.76 154.792 309.057 154.792C315.76 154.792 321.19 149.358 321.19 142.664C321.19 149.358 326.619 154.792 333.315 154.792Z" fill="url(#paint22_linear_34_238)"/>
<path d="M129.434 209.526C116.616 209.526 106.224 219.916 106.224 232.729C106.224 219.915 95.8307 209.526 83 209.526C95.8307 209.526 106.224 199.123 106.224 186.31C106.224 199.123 116.616 209.526 129.434 209.526Z" fill="url(#paint23_linear_34_238)"/>
<path d="M494.508 228.45C484.003 228.45 475.485 236.966 475.485 247.467C475.485 236.966 466.967 228.45 456.451 228.45C466.967 228.45 475.485 219.925 475.485 209.422C475.485 219.925 484.003 228.45 494.508 228.45Z" fill="url(#paint24_linear_34_238)"/>
<path d="M20.4262 96.5657C14.9891 96.5657 10.5814 100.972 10.5814 106.407C10.5814 100.972 6.17251 96.5657 0.73053 96.5657C6.17373 96.5657 10.5814 92.1534 10.5814 86.718C10.5802 92.1534 14.9891 96.5657 20.4262 96.5657Z" fill="url(#paint25_linear_34_238)"/>
<path d="M285.311 14.4982C279.613 14.4982 274.992 19.1164 274.992 24.8136C274.992 19.1176 270.372 14.4982 264.667 14.4982C270.371 14.4982 274.992 9.87397 274.992 4.17798C274.993 9.87397 279.613 14.4982 285.311 14.4982Z" fill="url(#paint26_linear_34_238)"/>
<path d="M60.8019 272.418C56.7974 272.418 53.552 275.664 53.552 279.666C53.552 275.664 50.3053 272.418 46.2972 272.418C50.3053 272.418 53.552 269.169 53.552 265.166C53.552 269.169 56.7987 272.418 60.8019 272.418Z" fill="url(#paint27_linear_34_238)"/>
<path d="M56.27 382.146L52.87 383.2C52.53 382.973 52.19 382.656 51.85 382.248C51.51 381.84 51.34 381.273 51.34 380.548C51.34 379.188 52.1673 378.236 53.822 377.692L57.63 376.4H58.888C59.8627 376.4 60.6333 376.683 61.2 377.25C61.7667 377.816 62.05 378.587 62.05 379.562V397.276C61.8007 397.321 61.4267 397.378 60.928 397.446C60.452 397.536 59.9647 397.582 59.466 397.582C58.9673 397.582 58.514 397.548 58.106 397.48C57.7207 397.412 57.392 397.276 57.12 397.072C56.848 396.868 56.6327 396.596 56.474 396.256C56.338 395.893 56.27 395.428 56.27 394.862V382.146Z" fill="white"/>
<path d="M185.194 342.128C186.486 342.128 187.631 342.298 188.628 342.638C189.625 342.955 190.475 343.397 191.178 343.964C191.881 344.53 192.413 345.199 192.776 345.97C193.139 346.74 193.32 347.568 193.32 348.452C193.32 350.832 191.971 353.098 189.274 355.252L184.82 358.822H192.98C193.116 359.071 193.241 359.388 193.354 359.774C193.49 360.159 193.558 360.578 193.558 361.032C193.558 361.848 193.377 362.437 193.014 362.8C192.651 363.14 192.175 363.31 191.586 363.31H179.788C179.289 362.97 178.893 362.539 178.598 362.018C178.326 361.474 178.19 360.839 178.19 360.114C178.19 359.343 178.349 358.697 178.666 358.176C178.983 357.632 179.335 357.201 179.72 356.884L184.412 352.872C185.001 352.373 185.489 351.931 185.874 351.546C186.259 351.138 186.565 350.775 186.792 350.458C187.041 350.14 187.211 349.846 187.302 349.574C187.415 349.302 187.472 349.041 187.472 348.792C187.472 348.157 187.189 347.658 186.622 347.296C186.078 346.933 185.398 346.752 184.582 346.752C183.675 346.752 182.859 346.899 182.134 347.194C181.431 347.466 180.842 347.76 180.366 348.078C179.981 347.806 179.663 347.466 179.414 347.058C179.165 346.65 179.04 346.174 179.04 345.63C179.04 344.451 179.595 343.578 180.706 343.012C181.817 342.422 183.313 342.128 185.194 342.128Z" fill="white"/>
<path d="M303.922 311.128C306.529 311.128 308.512 311.672 309.872 312.76C311.232 313.825 311.912 315.264 311.912 317.078C311.912 318.166 311.617 319.095 311.028 319.866C310.461 320.614 309.781 321.18 308.988 321.566C309.464 321.747 309.906 321.974 310.314 322.246C310.722 322.518 311.085 322.858 311.402 323.266C311.719 323.674 311.969 324.15 312.15 324.694C312.331 325.238 312.422 325.872 312.422 326.598C312.422 327.572 312.207 328.445 311.776 329.216C311.368 329.986 310.79 330.644 310.042 331.188C309.294 331.732 308.399 332.14 307.356 332.412C306.336 332.706 305.214 332.854 303.99 332.854C301.633 332.854 299.853 332.525 298.652 331.868C297.451 331.21 296.85 330.372 296.85 329.352C296.85 328.74 296.997 328.218 297.292 327.788C297.587 327.334 297.949 326.983 298.38 326.734C298.833 327.051 299.434 327.391 300.182 327.754C300.953 328.094 301.95 328.264 303.174 328.264C304.33 328.264 305.18 328.06 305.724 327.652C306.291 327.244 306.574 326.711 306.574 326.054C306.574 325.396 306.347 324.898 305.894 324.558C305.463 324.218 304.704 324.048 303.616 324.048H300.42C300.261 323.798 300.125 323.492 300.012 323.13C299.899 322.767 299.842 322.336 299.842 321.838C299.842 321.316 299.887 320.874 299.978 320.512C300.091 320.126 300.239 319.809 300.42 319.56H303.616C305.248 319.56 306.064 318.936 306.064 317.69C306.064 317.1 305.803 316.624 305.282 316.262C304.761 315.899 303.979 315.718 302.936 315.718C302.007 315.718 301.191 315.831 300.488 316.058C299.785 316.262 299.207 316.522 298.754 316.84C298.369 316.568 298.051 316.239 297.802 315.854C297.553 315.446 297.428 314.97 297.428 314.426C297.428 313.292 298.017 312.465 299.196 311.944C300.375 311.4 301.95 311.128 303.922 311.128Z" fill="white"/>
</g>
<defs>
<linearGradient id="paint0_linear_34_238" x1="58.4436" y1="416.038" x2="61.8682" y2="345.713" gradientUnits="userSpaceOnUse">
<stop stop-color="#4CCEC1"/>
<stop offset="1" stop-color="#93FFE2"/>
</linearGradient>
<linearGradient id="paint1_linear_34_238" x1="184" y1="424.296" x2="184" y2="293.125" gradientUnits="userSpaceOnUse">
<stop stop-color="#4CCEC1"/>
<stop offset="1" stop-color="#93FFE2"/>
</linearGradient>
<linearGradient id="paint2_linear_34_238" x1="303" y1="421.465" x2="303" y2="227.099" gradientUnits="userSpaceOnUse">
<stop stop-color="#4CCEC1"/>
<stop offset="1" stop-color="#93FFE2"/>
</linearGradient>
<linearGradient id="paint3_linear_34_238" x1="87.81" y1="347.987" x2="87.81" y2="393.44" gradientUnits="userSpaceOnUse">
<stop stop-color="#A939F8"/>
<stop offset="1" stop-color="#E559FF" stop-opacity="0"/>
</linearGradient>
<linearGradient id="paint4_linear_34_238" x1="223.055" y1="285.37" x2="223.055" y2="329.704" gradientUnits="userSpaceOnUse">
<stop stop-color="#A939F8"/>
<stop offset="1" stop-color="#E559FF" stop-opacity="0"/>
</linearGradient>
<linearGradient id="paint5_linear_34_238" x1="426.484" y1="412.077" x2="426.484" y2="159.59" gradientUnits="userSpaceOnUse">
<stop stop-color="#A939F8"/>
<stop offset="1" stop-color="#E559FF"/>
</linearGradient>
<linearGradient id="paint6_linear_34_238" x1="385.402" y1="204.657" x2="467.564" y2="204.657" gradientUnits="userSpaceOnUse">
<stop stop-color="#A939F8"/>
<stop offset="1" stop-color="#E559FF"/>
</linearGradient>
<linearGradient id="paint7_linear_34_238" x1="385.402" y1="261.041" x2="467.564" y2="261.041" gradientUnits="userSpaceOnUse">
<stop stop-color="#A939F8"/>
<stop offset="1" stop-color="#E559FF"/>
</linearGradient>
<linearGradient id="paint8_linear_34_238" x1="385.402" y1="315.189" x2="467.564" y2="315.189" gradientUnits="userSpaceOnUse">
<stop stop-color="#A939F8"/>
<stop offset="1" stop-color="#E559FF"/>
</linearGradient>
<linearGradient id="paint9_linear_34_238" x1="385.402" y1="385.167" x2="462.739" y2="385.167" gradientUnits="userSpaceOnUse">
<stop stop-color="#A939F8"/>
<stop offset="1" stop-color="#E559FF"/>
</linearGradient>
<linearGradient id="paint10_linear_34_238" x1="449.231" y1="69.1437" x2="412.517" y2="32.418" gradientUnits="userSpaceOnUse">
<stop stop-color="#FF9C00"/>
<stop offset="1" stop-color="#FFCA00"/>
</linearGradient>
<linearGradient id="paint11_linear_34_238" x1="398" y1="45.1594" x2="462.597" y2="45.1594" gradientUnits="userSpaceOnUse">
<stop offset="0.0056" stop-color="#FFCA00" stop-opacity="0"/>
<stop offset="1" stop-color="#FFFF8B"/>
</linearGradient>
<linearGradient id="paint12_linear_34_238" x1="473.563" y1="98.8935" x2="410.733" y2="36.0437" gradientUnits="userSpaceOnUse">
<stop stop-color="#89DFD6"/>
<stop offset="1" stop-color="white" stop-opacity="0.5"/>
</linearGradient>
<linearGradient id="paint13_linear_34_238" x1="467.594" y1="72.4045" x2="424.677" y2="29.4736" gradientUnits="userSpaceOnUse">
<stop stop-color="#89DFD6"/>
<stop offset="1" stop-color="white" stop-opacity="0.5"/>
</linearGradient>
<linearGradient id="paint14_linear_34_238" x1="167.482" y1="36.7472" x2="143.144" y2="10.6578" gradientUnits="userSpaceOnUse">
<stop stop-color="#FF9C00"/>
<stop offset="1" stop-color="#FFCA00"/>
</linearGradient>
<linearGradient id="paint15_linear_34_238" x1="131" y1="20.8096" x2="177" y2="20.8096" gradientUnits="userSpaceOnUse">
<stop offset="0.0056" stop-color="#FFCA00" stop-opacity="0"/>
<stop offset="1" stop-color="#FFFF8B"/>
</linearGradient>
<linearGradient id="paint16_linear_34_238" x1="184.809" y1="56.516" x2="143.159" y2="11.8685" gradientUnits="userSpaceOnUse">
<stop stop-color="#89DFD6"/>
<stop offset="1" stop-color="white" stop-opacity="0.5"/>
</linearGradient>
<linearGradient id="paint17_linear_34_238" x1="180.558" y1="38.914" x2="152.108" y2="8.41663" gradientUnits="userSpaceOnUse">
<stop stop-color="#89DFD6"/>
<stop offset="1" stop-color="white" stop-opacity="0.5"/>
</linearGradient>
<linearGradient id="paint18_linear_34_238" x1="489.361" y1="122.505" x2="371.167" y2="80.6321" gradientUnits="userSpaceOnUse">
<stop stop-color="#FF9C00"/>
<stop offset="1" stop-color="#FFCA00"/>
</linearGradient>
<linearGradient id="paint19_linear_34_238" x1="476.962" y1="157.503" x2="358.768" y2="115.63" gradientUnits="userSpaceOnUse">
<stop stop-color="#FF9C00"/>
<stop offset="1" stop-color="#FFCA00"/>
</linearGradient>
<linearGradient id="paint20_linear_34_238" x1="489.525" y1="122.041" x2="371.332" y2="80.1675" gradientUnits="userSpaceOnUse">
<stop stop-color="#FF9C00"/>
<stop offset="1" stop-color="#FFCA00"/>
</linearGradient>
<linearGradient id="paint21_linear_34_238" x1="476.797" y1="157.968" x2="358.604" y2="116.095" gradientUnits="userSpaceOnUse">
<stop stop-color="#FF9C00"/>
<stop offset="1" stop-color="#FFCA00"/>
</linearGradient>
<linearGradient id="paint22_linear_34_238" x1="309.058" y1="154.789" x2="333.315" y2="154.789" gradientUnits="userSpaceOnUse">
<stop stop-color="#FF9C00"/>
<stop offset="1" stop-color="#FFCA00"/>
</linearGradient>
<linearGradient id="paint23_linear_34_238" x1="118.015" y1="220.365" x2="94.1869" y2="198.435" gradientUnits="userSpaceOnUse">
<stop stop-color="#FF9C00"/>
<stop offset="1" stop-color="#FFCA00"/>
</linearGradient>
<linearGradient id="paint24_linear_34_238" x1="456.452" y1="228.446" x2="494.509" y2="228.446" gradientUnits="userSpaceOnUse">
<stop stop-color="#FF9C00"/>
<stop offset="1" stop-color="#FFCA00"/>
</linearGradient>
<linearGradient id="paint25_linear_34_238" x1="20.6992" y1="106.682" x2="6.74579" y2="92.724" gradientUnits="userSpaceOnUse">
<stop stop-color="#FF9C00"/>
<stop offset="1" stop-color="#FFCA00"/>
</linearGradient>
<linearGradient id="paint26_linear_34_238" x1="285.598" y1="25.0997" x2="270.974" y2="10.4713" gradientUnits="userSpaceOnUse">
<stop stop-color="#FF9C00"/>
<stop offset="1" stop-color="#FFCA00"/>
</linearGradient>
<linearGradient id="paint27_linear_34_238" x1="61.0036" y1="279.867" x2="50.7282" y2="269.588" gradientUnits="userSpaceOnUse">
<stop stop-color="#FF9C00"/>
<stop offset="1" stop-color="#FFCA00"/>
</linearGradient>
<clipPath id="clip0_34_238">
<rect width="495" height="424" fill="white" transform="translate(0 0.309814)"/>
</clipPath>
</defs>
</svg>
