<svg width="319" height="559" viewBox="0 0 319 559" fill="none" xmlns="http://www.w3.org/2000/svg">
<path d="M6.26177 23.8493C4.38535 98.4 -1.70019 355.554 1.2049 446.682C1.51267 456.336 9.37012 464.084 19.1714 464.4C67.6487 465.963 207.104 469.923 286.396 466.647C302.912 465.964 316.045 452.788 316.388 436.51C318.036 358.26 321.671 138.17 313.03 37.3473C311.995 25.2672 302.369 15.6474 290.121 14.4406C237.327 9.23865 97.1078 -3.47689 28.6043 0.901704C16.2495 1.69123 6.56849 11.6587 6.26177 23.8493Z" fill="url(#paint0_linear_19_382)"/>
<path d="M25.9594 47.0138C23.3115 108.07 14.9603 311.191 17.611 386.301C17.9983 397.28 26.7832 406.156 37.9172 406.798C83.7582 409.44 201.337 415.267 268.575 409.963C280.682 409.008 290.182 399.364 290.836 387.418C294.243 325.128 304.027 135.994 301.486 61.7256C301.08 49.8779 291.762 40.2019 279.775 39.1417C230.182 34.7561 102.811 24.321 45.6744 27.3914C34.9486 27.9681 26.4178 36.4435 25.9594 47.0138Z" fill="#E2E0DF"/>
<path opacity="0.5" d="M126.068 13.9282C126.068 16.2159 127.878 18.1025 130.197 18.2221C141.647 18.8126 173.902 20.4839 188.317 21.3075C191.16 21.4699 193.39 18.9535 192.851 16.2002L192.759 15.7305C192.391 13.8516 190.809 12.4374 188.875 12.2629C179.131 11.3834 149.729 8.94499 130.249 9.62985C127.909 9.71233 126.068 11.622 126.068 13.9282Z" fill="#3F67F9"/>
<path d="M119.336 253.821V333.79C118.027 335.11 112.937 337.869 103.049 338.338C93.1614 338.808 87.7811 332.762 86.327 329.681L62.9156 279.352H61.1707L61.8978 336.431C59.5227 337.067 53.0567 338.25 46.1932 337.898C39.3298 337.546 37.517 331.002 37.4686 327.774V250.299C37.0323 248.979 39.0681 245.897 50.7011 244.137C62.334 242.376 68.7322 248.685 70.4771 252.06L94.761 303.416H95.7788L94.761 245.604C95.2457 245.164 98.5707 244.254 107.993 244.137C117.416 244.019 119.481 250.544 119.336 253.821Z" fill="#71BE03"/>
<path d="M143.989 63.1715C143.989 63.1715 112.994 95.2357 108.184 136.919C103.375 178.603 143.989 220.286 143.989 220.286" stroke="#2B7FEB" stroke-width="3" stroke-linecap="round" stroke-dasharray="2 7"/>
<path d="M143.501 220.725C143.501 220.725 174.496 252.789 179.306 294.472C184.115 336.156 143.501 377.839 143.501 377.839" stroke="#2B7FEB" stroke-width="3" stroke-linecap="round" stroke-dasharray="2 7"/>
<g clip-path="url(#clip0_19_382)">
<path d="M202.724 540.734C203.353 528.431 198.901 511.31 207.151 495.07C215.411 478.823 221.922 452.731 216.289 441.802C213.94 437.241 207.705 432.618 203.717 434.627C198.946 423.589 185.033 423.216 182.03 427.236C176.774 417.033 160.576 415.951 155.299 427.672C143.831 426.329 135.14 424.108 134.143 421.277C133.144 418.454 124.38 416.852 121.678 421.266C118.983 425.683 124.658 433.897 118.76 447.554C112.861 461.211 107.442 469.852 116.241 477.504C125.041 485.155 147.055 515.887 147.456 544.669C165.389 558.146 199.573 552.033 202.717 540.733L202.724 540.734Z" fill="#F3A269"/>
<path d="M193.068 521.196C203.568 506.12 197.333 506.106 205.591 489.868C213.849 473.629 219.28 454.159 216.084 445.896C212.574 436.821 206.95 436.79 203.614 439.396C201.767 432.529 184.263 421.796 185.225 434.617C176.196 417.008 159.977 420.248 163.139 436.274C151.671 434.931 131.395 449.953 130.397 447.13C128.716 428.41 124.388 416.853 121.686 421.268C118.991 425.684 126.383 433.459 120.486 447.108C114.587 460.765 112.74 468.828 121.539 476.487C130.339 484.139 134.301 497.605 149.847 518.957C158.18 530.404 185.128 532.592 193.068 521.196Z" fill="#F9BA84"/>
<path d="M135.438 463.823C130.351 449.195 128.96 392.463 136.79 373.514C142.881 358.766 159.882 359.792 158.709 374.499C157.528 389.245 155.626 399.517 156.504 413.279C157.201 424.091 162.144 435.468 162.144 435.468L135.43 463.822L135.438 463.823Z" fill="#F9BA84"/>
<path d="M185.37 435.858C185.112 435.811 184.897 435.61 184.851 435.334C184.164 431.247 182.082 428.501 182.062 428.473C181.855 428.192 181.903 427.796 182.185 427.58C182.466 427.373 182.862 427.421 183.08 427.695C183.171 427.817 185.368 430.73 186.121 435.121C186.178 435.471 185.949 435.794 185.606 435.853C185.531 435.863 185.45 435.865 185.38 435.852L185.37 435.858Z" fill="#DC7B42"/>
<path d="M121.197 422.88C122.314 420.265 127.394 427.22 127.368 434.587C126.833 437.511 121.153 437.607 121.153 437.607C121.153 437.607 118.569 429.009 121.204 422.881L121.197 422.88Z" fill="#FDE8D8"/>
<path d="M139.578 379.313C139.578 379.313 152.733 380.867 155.476 381.369C156.679 374.792 156.992 367.097 150.686 366.228C142.396 365.093 139.578 379.313 139.578 379.313Z" fill="#FDE8D8"/>
</g>
<path d="M265.342 187.222C265.342 190.789 264.71 193.435 263.446 195.161C262.182 196.887 260.172 198.555 257.414 200.166C255.806 201.087 253.795 202.007 251.383 202.928C248.97 203.733 246.327 204.423 243.455 204.999C240.583 205.689 237.538 206.207 234.321 206.552C231.219 206.897 228.117 207.07 225.015 207.07C216.743 207.07 208.987 205.977 201.749 203.791C194.511 201.489 188.192 198.095 182.792 193.608C177.507 189.005 173.313 183.31 170.211 176.521C167.109 169.732 165.558 161.85 165.558 152.876C165.558 143.44 167.224 135.214 170.556 128.195C174.003 121.176 178.484 115.365 183.998 110.763C189.628 106.045 196.005 102.536 203.128 100.235C210.366 97.9333 217.777 96.7827 225.359 96.7827C236.274 96.7827 244.891 98.5662 251.21 102.133C257.644 105.585 260.861 110.13 260.861 115.768C260.861 118.76 260.114 121.349 258.621 123.535C257.127 125.721 255.404 127.447 253.451 128.712C250.578 126.987 246.959 125.318 242.593 123.707C238.342 121.981 233.517 121.118 228.117 121.118C218.466 121.118 210.768 123.88 205.024 129.403C199.394 134.926 196.579 142.578 196.579 152.358C196.579 157.651 197.326 162.253 198.819 166.165C200.428 169.962 202.553 173.127 205.196 175.658C207.838 178.074 210.883 179.915 214.33 181.181C217.777 182.332 221.453 182.907 225.359 182.907C227.887 182.907 230.127 182.677 232.081 182.216C234.034 181.756 235.527 181.238 236.561 180.663V164.439H218.121C217.432 163.174 216.743 161.505 216.053 159.434C215.479 157.363 215.192 155.177 215.192 152.876C215.192 148.733 216.111 145.742 217.949 143.901C219.902 142.06 222.372 141.139 225.359 141.139H254.485C257.931 141.139 260.574 142.117 262.412 144.073C264.365 145.914 265.342 148.561 265.342 152.013V187.222Z" fill="#2B41D9"/>
<defs>
<linearGradient id="paint0_linear_19_382" x1="0.432011" y1="233.954" x2="318.568" y2="233.954" gradientUnits="userSpaceOnUse">
<stop stop-color="#2B3582"/>
<stop offset="1" stop-color="#150E42"/>
</linearGradient>
<clipPath id="clip0_19_382">
<rect width="103.544" height="183.086" fill="white" transform="translate(131.259 359.371) rotate(10.3595)"/>
</clipPath>
</defs>
</svg>
