
<svg width="364" height="722" viewBox="0 0 364 722" fill="none" xmlns="http://www.w3.org/2000/svg">
<path d="M-274.95 229.519C-272.903 227.989 -270.858 226.45 -268.807 224.936C-267.102 223.677 -265.425 222.417 -263.575 221.542C-261.882 220.743 -260.24 219.518 -258.563 218.518C-252.531 214.92 -246.394 212.037 -240.219 209.403C-235.038 207.19 -229.836 205.123 -224.642 203.047C-215.072 199.224 -205.48 195.614 -195.97 191.134C-192.899 189.685 -189.887 187.96 -186.852 186.332C-181.324 183.368 -176.36 178.875 -171.122 175.145C-169.854 174.242 -168.686 172.988 -167.555 171.773C-165.434 169.504 -163.372 167.155 -161.293 164.832C-156.958 159.984 -153.173 154.569 -149.503 149.096C-145.889 143.706 -142.575 138.071 -139.158 132.525C-137.841 130.387 -136.597 128.198 -135.339 126.02C-133.507 122.85 -131.666 119.689 -129.876 116.498C-125.795 109.215 -121.664 101.958 -117.702 94.6052C-114.113 87.945 -110.216 81.4932 -106.294 75.0583C-102.665 69.0991 -98.5832 63.5069 -94.5262 57.8976C-90.7332 52.6531 -86.6612 47.7 -82.4096 43.0004C-78.6877 38.8865 -74.8536 34.9198 -70.8388 31.1983C-66.021 26.7325 -61.1019 22.5694 -55.9664 18.813C-53.2203 16.8031 -50.3707 15.2715 -47.5295 13.6728C-45.3989 12.4727 -43.2603 11.2765 -41.1058 10.2094C-36.3955 7.87944 -31.631 6.31533 -26.861 4.97763C-23.6537 4.07757 -20.4391 3.16336 -17.25 2.58038C-9.57531 1.17938 -1.99799 0.479499 5.41068 0.868792C8.12894 1.01348 10.8057 1.31563 13.5055 1.50893C18.6097 1.87296 23.4516 3.02748 28.233 4.28044C33.9978 5.78999 39.5987 7.76503 44.8642 10.4929C50.4218 13.3714 55.8809 16.4092 61.0789 19.9341C63.8144 21.787 66.6913 23.4042 69.5258 25.0846C73.5999 27.4979 77.6679 29.917 81.792 32.2398C84.0729 33.5275 86.3952 34.7604 88.8101 35.7818C92.5417 37.3611 96.2195 39.0514 100.143 40.2199C104.302 41.4563 108.388 42.8739 112.678 43.7615C116.213 44.4927 119.885 44.7268 123.514 45.1352C126.975 45.524 130.459 45.7907 134.016 45.7552C137.84 45.7142 141.619 45.8825 145.528 45.4203C149.149 44.9927 152.734 44.8777 156.342 44.5461C158.688 44.3294 161.051 43.9913 163.411 43.6651C167.408 43.1096 171.407 42.5323 175.408 41.9431C178.227 41.5271 181.05 41.0775 183.874 40.6328C190.793 39.5395 197.686 38.6615 204.56 37.9614C208.72 37.5388 212.854 37.2684 216.939 37.2591C220.842 37.2501 224.699 37.472 228.583 37.5647C235.156 37.7245 241.366 39.0878 247.508 40.6085C251.478 41.5908 255.297 43.0272 259.058 44.5367C262.589 45.9545 266.036 47.5796 269.378 49.383C275.56 52.7219 281.355 56.684 286.6 61.5838C291.074 65.7639 295.241 70.2825 299.011 75.316C301.766 78.9898 304.673 82.501 307.33 86.2809C309.928 89.9816 312.306 93.9176 314.759 97.7716C316.347 100.263 317.954 102.737 319.443 105.324C320.613 107.363 321.612 109.564 322.689 111.693C322.978 112.267 323.271 112.838 323.572 113.4C324.044 114.284 324.531 115.152 325.004 116.035C325.603 117.158 326.195 118.29 326.792 119.416C326.922 119.658 327.104 119.863 327.193 120.133C328.565 124.342 331.098 127.606 332.416 131.868C332.778 133.043 333.501 133.978 334.04 135.039C334.412 135.777 334.803 136.506 335.107 137.298C338.098 145.078 341.075 152.873 344.054 160.665C344.256 161.194 344.559 161.695 344.605 162.291C344.806 164.93 345.863 166.991 346.672 169.219C347.161 170.558 347.774 171.813 347.794 173.447C347.798 173.753 347.875 174.065 347.995 174.306C349.448 177.219 349.821 180.842 350.953 183.975C351.593 185.749 351.978 187.718 352.399 189.643C353.486 194.654 354.601 199.651 355.57 204.726C356.391 209.026 357.045 213.41 357.734 217.781C358.282 221.257 358.829 224.736 359.269 228.263C359.795 232.501 360.25 236.773 360.652 241.064C361.647 251.706 362.366 262.451 362.79 273.304C363.128 281.966 363.352 290.668 363.124 299.494C362.962 305.77 362.547 312.121 361.992 318.48C361.561 323.427 360.664 328.452 360.108 333.425C359.539 338.538 358.169 343.641 357.082 348.746C356.459 351.672 355.449 354.59 354.624 357.51C354.136 359.239 353.684 360.974 353.178 362.698C352.925 363.561 352.603 364.415 352.271 365.263C351.736 366.642 351.066 367.991 350.628 369.38C348.753 375.354 346.08 381.046 343.317 386.692C341.055 391.317 338.714 395.923 336.173 400.391C333.863 404.455 331.243 408.328 328.75 412.279C325.452 417.511 321.764 422.38 317.948 427.125C313.711 432.391 309.264 437.424 304.534 442.002C299.89 446.495 295.159 450.876 290.01 454.384C287.58 456.037 285.269 458.079 282.823 459.667C279.775 461.642 276.671 463.463 273.542 465.106C266.91 468.583 260.243 471.853 253.523 474.757C249.071 476.683 244.605 478.487 240.152 480.408C236.794 481.856 233.488 483.64 230.188 485.449C229.654 485.742 229.145 486.16 228.635 486.541C227.012 487.743 225.412 489.02 223.766 490.157C219.754 492.932 216.159 496.481 212.653 500.188C208.137 504.965 204.112 510.238 200.464 515.955C194.804 524.821 189.676 534.001 184.673 543.277C179.516 552.845 174.394 562.44 169.053 571.899C165.848 577.577 162.372 583.11 158.805 588.538C154.359 595.297 149.686 601.89 144.537 607.992C140.42 612.872 136.228 617.661 131.628 621.877C129.706 623.641 127.863 625.544 125.955 627.337C125.24 628.006 124.446 628.54 123.685 629.127C122.331 630.165 121.04 631.279 119.767 632.514C117.723 634.493 115.492 636.169 113.124 637.376C112.587 637.649 112.006 637.846 111.521 638.249C108.768 640.542 105.816 642.177 102.907 643.92C100.615 645.292 98.2737 646.49 95.9358 647.651C89.6236 650.783 83.2727 653.631 76.8489 655.641C72.6376 656.958 68.4241 658.484 64.21 659.25C61.9315 659.667 59.6316 660.338 57.3485 660.815C49.1027 662.53 40.9861 663.252 32.8911 663.707C24.2654 664.193 15.8195 663.837 7.32842 663.69C0.609761 663.576 -6.04449 663.164 -12.7834 663.147C-20.4412 663.125 -28.2224 663.837 -36.1321 665.841C-39.7893 666.768 -43.4757 667.989 -47.116 669.467C-51.661 671.309 -56.1751 673.521 -60.6954 675.636C-62.043 676.265 -63.3754 677.063 -64.6945 677.854C-66.9881 679.23 -69.2669 680.653 -71.5473 682.067C-71.986 682.342 -72.4016 682.789 -72.842 682.965C-75.2683 683.919 -77.4056 685.804 -79.6326 687.415C-79.9751 687.663 -80.3147 687.989 -80.6686 688.138C-83.8328 689.454 -86.5713 692.089 -89.5088 694.099C-90.717 694.925 -91.9674 695.608 -93.1853 696.389C-94.1474 697.007 -95.1021 697.655 -96.0493 698.32C-98.6312 700.133 -101.066 702.384 -103.861 703.541C-104.478 703.796 -105.056 704.419 -105.67 704.809C-106.715 705.478 -107.775 706.107 -108.831 706.739C-109.184 706.95 -109.559 707.088 -109.9 707.328C-113.876 710.108 -117.999 712.235 -122.126 714.343C-128.462 717.579 -134.847 719.962 -141.27 721.105C-147.07 722.135 -152.619 721.878 -157.788 720.295C-165.451 717.954 -171.43 712.972 -176.034 705.925C-177.453 703.754 -178.668 701.392 -180.007 699.159C-182.036 695.783 -183.193 691.783 -184.746 688.072C-185.138 687.136 -185.289 686.007 -185.546 684.962C-185.661 684.487 -185.723 683.973 -185.874 683.523C-187.414 678.987 -188.216 674.048 -189.018 669.086C-190.304 661.116 -190.924 652.886 -191.224 644.534C-191.417 639.108 -191.257 633.565 -191.283 628.082C-191.328 618.243 -190.26 608.168 -189.554 598.166C-189.327 594.947 -188.828 591.68 -188.455 588.434C-188.17 585.947 -187.83 583.448 -187.619 580.972C-186.849 571.915 -185.939 562.823 -185.43 553.819C-184.951 545.346 -185.279 537.087 -186.555 529.207C-187.129 525.647 -188.086 522.283 -188.853 518.828C-189.998 513.659 -192.162 509.27 -193.819 504.498C-194.187 503.432 -194.83 502.559 -195.35 501.602C-195.526 501.284 -195.746 501 -195.894 500.66C-198.282 495.154 -201.505 490.456 -204.884 485.932C-207.585 482.322 -210.566 479.037 -213.797 476.056C-217.842 472.325 -221.858 468.556 -226.333 465.466C-229.752 463.109 -233.322 461.005 -236.818 458.769C-244.315 453.973 -252.283 450.058 -260.203 446.056C-266.539 442.856 -272.946 439.786 -279.253 436.53C-284.582 433.779 -289.91 431.019 -294.896 427.626C-297.348 425.959 -299.983 424.578 -302.345 422.775C-305.522 420.35 -308.554 417.696 -311.579 415.04C-316.039 411.127 -319.849 406.408 -323.191 401.179C-324.435 399.232 -325.797 397.34 -326.553 394.925C-326.725 394.375 -326.895 393.783 -327.216 393.38C-329.28 390.769 -330.353 387.305 -331.311 383.881C-332.427 379.885 -333.588 375.906 -334.378 371.675C-335.682 364.67 -336.313 357.427 -336.569 350.01C-336.648 347.716 -336.538 345.358 -336.486 343.023C-336.444 341.006 -336.476 338.994 -336.263 336.949C-335.581 330.36 -334.72 323.76 -333.27 317.098C-331.815 310.415 -329.772 303.826 -327.288 297.348C-324.351 289.699 -320.902 282.247 -316.489 275.216C-312.901 269.499 -309.207 263.895 -305.09 258.67C-301.466 254.067 -297.688 249.62 -293.617 245.578C-290.577 242.562 -287.496 239.615 -284.419 236.663C-283.869 236.133 -283.245 235.73 -282.648 235.282C-280.065 233.34 -277.506 231.43 -274.95 229.519Z" fill="#F7F177"/>
</svg>
